<?xml version="1.0" encoding="utf-8"?>
<!-- Generator: Adobe Illustrator 22.1.0, SVG Export Plug-In . SVG Version: 6.00 Build 0)  -->
<svg version="1.1" id="Group_989" xmlns="http://www.w3.org/2000/svg" xmlns:xlink="http://www.w3.org/1999/xlink" x="0px" y="0px"
	 viewBox="0 0 160 15.2" style="enable-background:new 0 0 160 15.2;" xml:space="preserve">
<style type="text/css">
	.st0{fill:#EDCC72;}
</style>
<g id="Group_988">
	<g id="Group_986" transform="translate(0 0.04)">
		<path id="Path_153" class="st0" d="M67.7,1.7c0-0.6-0.8-0.9-1.5-1V0.2h6.6v0.6c-1.7,0.5-3.2,1.6-4.3,3L68.3,4l-2.2,2.3l4.3,5.3
			c1,1.2,2.2,2.2,3.6,2.9v0.4c-0.9,0.2-1.8,0.2-2.7,0.2c-2.3,0-3.9-2-6-4.7c0,0-2.1-2.7-2.1-2.7c0,0,3.3-3.9,3.3-3.9l0,0
			C67.1,3.2,67.5,2.5,67.7,1.7"/>
		<g id="Group_985" transform="translate(42.418 0)">
			<path id="Path_154" class="st0" d="M8,14.9c1.6,0.1,3.1-0.1,4.6-0.6c0,0,1.1-4.2,1.1-4.3c-0.2-0.1-0.4-0.2-0.6-0.3
				c-1,2.5-2.7,4-4.8,4c-2.6,0-4.9-3.1-4.9-6.7c0-3.3,1.9-6.1,4.2-6.1c2.4,0,4,1.3,4.7,3.9c0,0,0.5-0.2,0.5-0.2V1
				c-1.6-0.7-3.4-1-5.2-1C4,0,0,2.8,0,7.4C0,11.6,3.5,14.9,8,14.9"/>
		</g>
		<path id="Path_155" class="st0" d="M32.7,14c-0.1,0-0.2,0-0.2-0.1l-0.2-0.1c-0.9-0.3-1.2-0.6-1.2-1.2c0-0.3,0.1-0.6,0.2-0.9l0.7-2
			h4.9l0.8,2.2c0.1,0.2,0.1,0.5,0.2,0.7c0,0.8-0.4,1.2-1.5,1.3v0.5h6.4V14c-0.7-0.2-1.2-0.8-1.4-1.4c0,0-4.8-12.5-4.8-12.5h-2.5
			c-0.1,0.2-4.5,11.4-4.5,11.4c-0.7,1.8-0.8,2-2,2.5v0.5h5.2L32.7,14 M34.3,2.8l2.1,5.7h-4L34.3,2.8"/>
		<path id="Path_156" class="st0" d="M8.3,14.7c3.5,0,5.4-1.3,5.4-3.8c0-1.8-1.6-3.2-4.2-3.7l-0.1,0l0.1,0c1.7-0.6,2.9-2.2,3-4
			c0-1.9-1.6-3.2-3.9-3.2C7.5,0,6.4,0.1,5.3,0.3c0,0-4.5-0.3-4.6-0.3v0.5c1.3,0.6,1.7,1.2,1.7,3v7.9c0,1.8-0.4,2.3-2.3,2.5v0.6h4.8
			C6,14.7,7.1,14.7,8.3,14.7 M5.7,1.1L5.7,1.1c3,0,4.1,1.9,4.1,3.2c0,1.1-0.6,2.1-1.5,2.7L6,6.7H5.7V1.1 M5.7,7.8L5.7,7.8
			c3.1,0.3,4.6,0.9,4.6,3.3c0,1.7-1,2.9-2.4,2.9c-1.4,0-2.2-0.9-2.2-2.5L5.7,7.8"/>
		<path id="Path_157" class="st0" d="M27.2,9.7c0,0.1-0.8,4.8-0.8,4.8H14.5V14c1.9-0.3,2.3-0.8,2.3-2.5V3.3c0-1.6-0.4-2.1-1.7-2.5
			V0.2h7.2v0.5c-1.9,0.3-2.2,0.8-2.2,2.8v7.7c0,1.5,0.6,2.1,2,2.1c1.8,0,3.4-1.4,4.3-3.8C26.5,9.6,27.1,9.7,27.2,9.7"/>
		<path id="Path_158" class="st0" d="M64.7,14v0.6h-7.3V14c1.6-0.4,2-0.8,2-2.5V3.3c0-1.6-0.4-2.1-1.9-2.6V0.2h6.9v0.5
			c-1.5,0.5-1.7,0.9-1.7,2.6v8.2C62.8,13.2,63.2,13.6,64.7,14"/>
	</g>
	<g id="Group_987" transform="translate(77.344)">
		<path id="Path_159" class="st0" d="M63.4,13.6c2.1,0,3.9-1.9,4.7-3c0,0,0.5,0.2,0.6,0.3c0,0-0.9,3.7-0.9,3.8H55.4V14
			c1.9-0.2,2.3-0.8,2.3-2.5V3.6c0-1.9-0.3-2.4-1.7-2.9V0.2h11.3c0,0.1,0.3,3.3,0.4,3.4c0,0-0.5,0.1-0.6,0.1
			c-0.6-1.4-1.8-2.3-3.3-2.5l-2.7-0.2v5.5l1.6,0c1.2,0.1,2.3-0.8,2.4-2h0.6v5.2h-0.6C65,8.6,64,7.7,62.8,7.6l-1.6-0.1v3.8
			C61.1,12.9,61.8,13.6,63.4,13.6"/>
		<path id="Path_160" class="st0" d="M23,13.6c2.1,0,3.9-1.9,4.7-3c0,0,0.5,0.2,0.6,0.3c0,0-0.9,3.7-0.9,3.8H15V14
			c1.9-0.2,2.3-0.8,2.3-2.5V3.6c0-1.9-0.3-2.4-1.7-2.9V0.2h11.3c0,0.1,0.3,3.3,0.4,3.4c0,0-0.5,0.1-0.6,0.1
			c-0.6-1.4-1.8-2.3-3.3-2.5l-2.7-0.2v5.5l1.6,0c1.2,0.1,2.3-0.8,2.4-2h0.6v5.2h-0.6c-0.2-1.2-1.2-2.1-2.4-2.2l-1.6-0.1v3.8
			C20.7,12.9,21.4,13.6,23,13.6"/>
		<path id="Path_161" class="st0" d="M37,13.4c1.8,0,3.4-1.4,4.3-3.8c0,0,0.6,0.1,0.7,0.1c0,0.1-0.8,4.8-0.8,4.8H29.3V14
			c1.9-0.3,2.3-0.8,2.3-2.5V3.3c0-1.6-0.4-2.1-1.7-2.5V0.2h7.2v0.5C35.3,1,35,1.5,35,3.6v7.7C35,12.8,35.6,13.4,37,13.4"/>
		<path id="Path_162" class="st0" d="M81.6,0c0,0.1,1,4.2,1,4.3c-0.2,0.1-0.4,0.2-0.7,0.3c-0.7-1.6-2.2-2.8-4-2.9h-0.7v9.9
			c0,1.5,0.8,2.2,2.8,2.5v0.5h-8.7v-0.5c1.9-0.4,2.6-1,2.6-2.5V1.6h-0.7c-1.7,0.2-3.3,1.3-4,2.9c0,0-0.6-0.2-0.7-0.2
			c0-0.1,0.9-4.2,0.9-4.3c2,0.5,4.1,0.7,6.1,0.6C77.7,0.7,79.7,0.5,81.6,0"/>
		<path id="Path_163" class="st0" d="M8.9,0.8V0.2h5.4v0.4c-0.9,0.4-1.5,1.1-1.7,2L8.1,13.6C7.7,14.4,7,15,6.1,15.2
			C6,15.1,1.4,2.3,1.4,2.3C1.2,1.5,0.8,1,0,0.8V0.2h6v0.5c-1,0.2-1.3,0.4-1.3,1c0,0.5,0.2,1,0.3,1.5l2.9,7.6L10.2,4
			c0.2-0.5,0.3-1.1,0.3-1.7C10.6,1.6,10.2,1.2,8.9,0.8"/>
		<path id="Path_164" class="st0" d="M49.2,0.8V0.2h5.4v0.4c-0.9,0.4-1.5,1.1-1.7,2l-4.4,10.9c-0.4,0.8-1.2,1.4-2.1,1.6
			c0-0.1-4.6-12.8-4.6-12.8c-0.3-0.8-0.6-1.3-1.4-1.5V0.2h6v0.5c-1,0.2-1.3,0.4-1.3,1c0,0.5,0.2,1,0.3,1.5l2.9,7.6L50.6,4
			c0.2-0.5,0.3-1.1,0.3-1.7C50.9,1.6,50.6,1.2,49.2,0.8"/>
		<path id="Path_165" class="st0" d="M79.9,12.3c-0.5,0-1-0.4-1-0.9c0,0,0-0.1,0-0.1c0-0.6,0.4-1,1-1c0.6,0,1,0.5,1,1.1
			C80.8,11.9,80.4,12.3,79.9,12.3 M79.9,10.5c-0.4,0-0.8,0.4-0.8,0.8c0,0,0,0,0,0c0,0.4,0.3,0.8,0.7,0.8c0,0,0,0,0.1,0
			c0.4,0,0.8-0.4,0.8-0.8c0,0,0,0,0,0C80.7,10.9,80.3,10.5,79.9,10.5 M79.7,11.9h-0.2v-1.1h0.4c0.3,0,0.4,0.1,0.4,0.3
			c0,0.2-0.1,0.3-0.3,0.3l0.3,0.5h-0.2l-0.3-0.5h-0.2L79.7,11.9 M79.9,11.3c0.2,0,0.3,0,0.3-0.2c0-0.1-0.1-0.2-0.2-0.2h-0.2v0.3
			L79.9,11.3"/>
		<path id="Path_166" class="st0" d="M79.9,11.3h-0.2v-0.3h0.2c0.1,0,0.2,0,0.2,0.2S80,11.3,79.9,11.3 M79.7,11.4h0.2l0.3,0.5h0.2
			L80,11.4c0.2,0,0.3-0.2,0.3-0.3c0-0.2-0.2-0.3-0.4-0.3h-0.4v1.1h0.2L79.7,11.4 M79.9,12.2c-0.4,0-0.8-0.4-0.8-0.8c0,0,0,0,0,0
			c0-0.4,0.3-0.8,0.7-0.8c0,0,0,0,0.1,0c0.4,0,0.8,0.4,0.8,0.8c0,0,0,0,0,0C80.7,11.8,80.3,12.2,79.9,12.2 M79.9,10.3
			c-0.6,0-1,0.5-1,1.1c0,0.5,0.4,0.9,1,1c0.6,0,1-0.5,1-1.1C80.8,10.8,80.4,10.3,79.9,10.3"/>
	</g>
</g>
</svg>
