<?xml version="1.0" encoding="utf-8"?>
<!-- Generator: Adobe Illustrator 22.1.0, SVG Export Plug-In . SVG Version: 6.00 Build 0)  -->
<svg version="1.1" id="Layer_1" xmlns="http://www.w3.org/2000/svg" xmlns:xlink="http://www.w3.org/1999/xlink" x="0px" y="0px"
	 viewBox="0 0 108.6 100" style="enable-background:new 0 0 108.6 100;" xml:space="preserve">
<style type="text/css">
	.st0{fill:#EDCC72;}
	.st1{fill:#FFFFFF;}
</style>
<g id="Group_73" transform="translate(-0.099)">
	<g id="Group_71" transform="translate(0.1 56.996)">
		<path id="Path_46" class="st0" d="M94.4,2.3c0-0.8-1-1.2-2-1.3V0.3h8.7V1c-2.5,0.6-4.4,2.7-5.6,3.9l-0.4,0.4l-2.9,3l5.7,7
			c0.9,1.1,3.2,3.3,4.8,3.7v0.6c-1.2,0.2-2.4,0.3-3.6,0.3c-3.1,0-5.1-2.6-7.9-6.2c0,0-2.7-3.6-2.8-3.6c0.1-0.1,4.3-5.1,4.3-5.1
			l0.1-0.1C93.6,4,94.4,3.1,94.4,2.3"/>
		<path id="Path_47" class="st0" d="M83.2,40.9c2.8,0,5.2-2.5,6.1-3.9c0.1,0,0.7,0.3,0.7,0.3c0,0.1-1.2,4.9-1.2,4.9H72.7v-0.7
			c2.5-0.3,3.1-1,3.1-3.4V27.8c0-2.5-0.4-3.1-2.2-3.7v-0.6h14.8c0,0.1,0.4,4.4,0.4,4.5c-0.1,0-0.7,0.2-0.8,0.2
			c-0.8-1.8-2.4-3.1-4.4-3.3l-3.5-0.2v7.2l2.1-0.1c2.1-0.1,2.7-1,3.2-2.6h0.8V36h-0.8c-0.5-1.8-1.6-2.7-3.1-2.9L80.2,33v4.9
			C80.2,40,81.1,40.9,83.2,40.9"/>
		<path id="Path_48" class="st0" d="M30.1,40.9c2.8,0,5.2-2.5,6.1-3.9c0.1,0,0.7,0.3,0.7,0.3c0,0.1-1.2,4.9-1.2,4.9H19.7v-0.7
			c2.5-0.3,3.1-1,3.1-3.4V27.8c0-2.5-0.4-3.1-2.2-3.7v-0.6h14.8c0,0.1,0.4,4.4,0.4,4.5c-0.1,0-0.7,0.2-0.8,0.2
			c-0.8-1.8-2.4-3.1-4.4-3.3l-3.5-0.2v7.2l2.1-0.1c2.1-0.1,2.7-1,3.2-2.6h0.8V36h-0.8c-0.5-1.8-1.6-2.7-3.1-2.9L27.2,33v4.9
			C27.2,40,28,40.9,30.1,40.9"/>
		<path id="Path_49" class="st0" d="M48.5,40.7c2.4,0,4.5-1.9,5.6-5c0.1,0,0.8,0.2,0.9,0.2c0,0.1-1,6.3-1,6.4H38.5v-0.7
			c2.5-0.4,3.1-1,3.1-3.3V27.4c0-2.1-0.4-2.8-2.2-3.3v-0.7h9.5v0.7c-2.4,0.4-2.9,1-2.9,3.7v10.1C45.9,39.9,46.7,40.7,48.5,40.7"/>
		<path id="Path_50" class="st0" d="M107.2,23.1c0,0.1,1.3,5.5,1.4,5.6c-0.1,0-0.8,0.4-0.9,0.4c-1.4-2.9-3.7-3.9-5.3-3.9h-0.9v13.1
			c0,2,1,2.9,3.6,3.3v0.7H93.7v-0.7c2.6-0.5,3.4-1.3,3.4-3.3V25.2h-0.9c-1.9,0-3.9,1.5-5.2,3.9c-0.1,0-0.8-0.3-0.9-0.3
			c0-0.1,1.2-5.6,1.2-5.7c2.7,0.7,4,0.8,8.1,0.8C103.3,23.9,104.6,23.8,107.2,23.1"/>
		<path id="Path_51" class="st0" d="M11.6,24.1v-0.6h7.1V24c-1.1,0.5-2,1.4-2.3,2.6l-5.8,14.3C10.1,42,9.1,42.7,8,43
			c0-0.1-6.1-16.9-6.1-16.9c-0.2-1-0.9-1.7-1.9-2v-0.8h7.9V24c-1.3,0.2-1.7,0.5-1.7,1.3c0.1,0.7,0.2,1.3,0.4,1.9l3.7,9.9l3.1-8.9
			c0.3-0.7,0.4-1.5,0.4-2.2C13.9,25.1,13.3,24.6,11.6,24.1"/>
		<path id="Path_52" class="st0" d="M64.7,24.1v-0.6h7.1V24c-1.1,0.5-2,1.4-2.3,2.6l-5.8,14.3C63.2,42,62.2,42.7,61,43
			c0-0.1-6.1-16.9-6.1-16.9c-0.2-1-0.9-1.7-1.9-2v-0.8h7.9V24c-1.3,0.2-1.7,0.5-1.7,1.3c0.1,0.7,0.2,1.3,0.4,1.9l3.7,9.9l3.1-8.9
			c0.3-0.7,0.4-1.5,0.4-2.2C66.9,25.1,66.4,24.6,64.7,24.1"/>
		<g id="Group_70" transform="translate(61.16)">
			<path id="Path_53" class="st0" d="M10.6,19.5c2.1,0.1,4.1-0.1,6.1-0.7c0-0.1,1.4-5.6,1.5-5.6c-0.1,0-0.7-0.3-0.8-0.4
				c-1.3,3.3-3.6,5.3-6.2,5.3c-3.4,0-6.4-4.1-6.4-8.8c0-4.4,2.5-8,5.4-8c3.1,0,5.2,1.7,6.2,5.2c0.2-0.1,0.5-0.1,0.7-0.2V1.3
				C15.6,0.4,12.6,0,10.3,0C5.2,0,0,3.6,0,9.7C0,15.2,4.6,19.5,10.6,19.5"/>
		</g>
		<path id="Path_54" class="st0" d="M48.4,18.4c-0.1,0-0.2-0.1-0.3-0.1l-0.3-0.1c-1.2-0.3-1.6-0.7-1.6-1.6c0-0.4,0.1-0.8,0.2-1.2
			l0.9-2.6h6.4l1,2.8c0.1,0.3,0.2,0.6,0.2,0.9c0,1-0.6,1.6-2,1.8v0.7h8.4v-0.7c-0.9-0.3-1.5-1-1.8-1.9c0,0-6.3-16.4-6.3-16.5H50
			c-0.1,0.3-5.9,15-5.9,15c-0.9,2.3-1.1,2.6-2.6,3.3v0.7h6.8L48.4,18.4 M50.5,3.7l2.8,7.6h-5.3L50.5,3.7"/>
		<path id="Path_55" class="st0" d="M16.3,19.4c4.7,0,7-1.7,7-5c0-2.4-2.1-4.2-5.5-4.9l-0.2,0l0.1-0.1c2.9-1.3,4-3.6,4-5.3
			c0-2.4-2.1-4.2-5.1-4.2c-1.5,0-2.9,0.1-4.3,0.4c0,0-6-0.4-6.1-0.4v0.7c1.8,0.8,2.2,1.5,2.2,3.9v10.4c0,2.4-0.6,3-3.1,3.3v0.7h6.3
			C13.3,19.3,14.8,19.4,16.3,19.4 M12.9,1.4L12.9,1.4c4,0,5.4,2.6,5.4,4.2s-0.7,2.5-2,3.6l-2.9-0.3l-0.5-0.1L12.9,1.4 M12.9,10.2
			L12.9,10.2c4.1,0.4,6,1.2,6,4.3c0,2.2-1.3,3.8-3.1,3.8s-2.9-1.2-2.9-3.3L12.9,10.2"/>
		<path id="Path_56" class="st0" d="M41.1,12.7c0,0.1-1,6.3-1,6.4H24.5v-0.7c2.5-0.4,3.1-1,3.1-3.3V4.3c0-2.1-0.5-2.8-2.2-3.3V0.3
			h9.5V1C32.5,1.4,32,2,32,4.7v10.1c0,1.9,0.8,2.8,2.6,2.8c2.4,0,4.5-1.9,5.6-5C40.5,12.6,40.8,12.7,41.1,12.7"/>
		<path id="Path_57" class="st0" d="M90.5,18.4v0.7H81v-0.7c2.2-0.4,2.7-1.1,2.7-3.3V4.4c0-2.1-0.5-2.8-2.4-3.4V0.3h9.1V1
			C88.3,1.6,88,2.1,88,4.4v10.7C88,17.4,88.4,17.9,90.5,18.4"/>
	</g>
	<g id="Group_72" transform="translate(32.915 0)">
		<path id="Path_58" class="st0" d="M21.5,49.5c-3.1,0-6-1.2-8.4-3.2c-0.3-0.2-0.6-0.5-0.8-0.8c-0.5,0.9-1.4,1.6-2.4,1.7l0,0
			c-0.9,0-1.8-0.6-2.6-1.8c-0.4-0.7-0.7-1.5,0.9-2.6c0.8-0.5,1.5-1.1,2.1-1.8C9.7,41,9,40.9,8.3,40.9H7.7c-0.3,0-0.6,0-0.9,0.1
			l-0.3,0c-0.6,0.1-1.1,0.1-1.6,0.1c-0.5,0-1.1-0.1-1.6-0.2c-0.9-0.4-1.6-1.3-1.7-2.2c0-0.1-0.1-0.3-0.1-0.4v-0.1
			c-0.1-0.7,0-1.4,0.4-2.1l-1.7-0.3c-0.1,0-0.1-0.1-0.2-0.1l0-0.1l0-0.1c0,0,0.4-0.7,0.5-0.8l-0.4-1.3v-0.1l0.1-0.1
			c0-0.1,0.1-0.1,0.2-0.1c0.1,0,2.9,0.4,3.6,0.4c0.2,0.1,0.4,0.2,0.5,0.4l0.1,0.2c0.3,0.9,0.2,2-0.2,2.8l-0.5,0.6
			c-0.2,0.2-0.4,0.5-0.6,0.8c0,0,0,0.1,0,0.1c0.1,0.1,0.3,0.2,1.1,0.2h0.1c0.8,0,1.6-0.1,2.4-0.3l0.1,0c0.7-0.2,1.5-0.3,2.2-0.3
			c0.6,0,1.2,0.1,1.7,0.5c0.6,0.5,1.2,1,1.8,1.6h0.7c0.6,0,1.1,0.1,1.7,0.2c0.4-0.5,0.9-1,1.5-1.3c0,0,0.1-0.1,0.2-0.1
			c0.1,0,0.2,0,0.2,0.1c0.6,0.8,0.9,1.7,1,2.7H18c0.2,0,0.5-0.1,0.7-0.1c0.2,0,0.2,0.1,0.2,0.1l0,0.1l0,0.1
			c-0.2,0.4-0.3,0.7-0.3,1.1c0,0.2,0,0.4,0.1,0.6c0.2,0.4,0.6,0.7,1,0.8c0,0,0.1,0,0.1,0c0.1,0,0.2-0.1,0.4-0.1
			c0.2-0.4,0.4-0.9,0.3-1.3v-0.2c-0.1-0.9-0.5-1.7-1.1-2.4c0,0,0,0.1,0,0.1c0,0.1-0.1,0.2-0.2,0.2h-0.1c-0.1,0-0.1,0-0.2-0.1
			c-0.7-0.7-1.5-1.3-2.3-1.9c-0.9-0.6-1.9-1.2-2.9-1.7c0.1,0.2,0.1,0.5,0.1,0.7v0.4c0,0.4,0,0.6,0,0.7c0,0.1-0.1,0.2-0.2,0.2h-0.1
			c-0.1,0-0.1,0-0.2-0.1c0,0-1.5-1.6-1.8-1.9c-0.2,0.2-0.4,0.4-0.4,0.4c0,0-0.1,0.1-0.2,0.1c-0.1,0-0.2-0.1-0.2-0.1l0,0
			c0,0,0-0.1,0-0.1c-0.4-0.9-0.9-1.7-1.4-2.5v0.2c0,0.7-0.2,1.4-0.6,2c-0.3,0.5-0.9,0.7-1.4,0.8c-0.1,0-0.3,0-0.4,0
			c-1.9-0.3-1.7-2.7-1.7-2.8c0-0.1,0.1-0.2,0.2-0.2c0.1,0,0.2,0.1,0.2,0.2c0,0.4,0.2,0.7,0.5,0.9c0.1,0,0.1,0,0.2,0
			c0.4,0,0.8-0.2,1-0.6c0.1-0.2,0.2-0.5,0.2-0.8c0-0.2,0-0.3,0-0.4l-0.3,0.1l-0.1,0c-0.1,0-0.1,0-0.1-0.1C7,34.2,6.9,34.1,7,34
			c0.1-1.1,0-2.3-0.2-3.4c-0.1-0.4-0.2-0.9-0.2-1.3c-0.1,0.9-0.4,1.7-0.9,2.4c-0.4,0.4-0.9,0.6-1.4,0.6H4.1c-0.7,0-1.3-0.4-1.6-0.9
			c-0.1-0.3-0.2-0.5-0.3-0.8l0-0.1c-0.1-0.7-0.1-1.4,0.2-2c0-0.1,0.1-0.1,0.2-0.1l0.1,0c0.1,0,0.2,0.1,0.1,0.2c0,0,0,0,0,0
			c0,0.2,0.1,1.1,0.5,1.3c0.1,0.1,0.2,0.1,0.3,0.1c0.1,0,0.2,0,0.3-0.1c-0.1,0-0.2-0.1-0.3-0.2c0,0-0.1-0.1-0.1-0.2
			c0-0.1,0-0.1,0.1-0.2c1-1.3,1.5-3,1.5-4.6c0-0.6-0.1-1.2-0.2-1.8c-0.4,0.4-0.8,0.7-1.2,0.9c0,0-0.1,0-0.1,0c-0.1,0-0.1,0-0.1-0.1
			c-0.1,0-0.1-0.1-0.1-0.2l0.1-0.5c0.4-1.3,0.6-2.6,0.7-3.9c0.1-1.1,0.5-2.1,1.3-2.9c-0.2,0-0.4,0-0.6,0.1c-0.2,0-0.3,0-0.5,0
			c-0.1,0-0.2-0.1-0.2-0.2c0.1-0.8,0.5-1.6,1.2-2c-1.1-0.2-2-1-2.2-2.1c0-0.1,0-0.2,0.1-0.2c0,0,0.1,0,0.1,0c0.1,0,0.1,0,0.1,0.1
			c0.4,0.4,0.9,0.6,1.5,0.6c-0.3-0.4-0.4-1-0.4-1.5v-0.3c0-0.5,0.3-0.9,0.6-1.2C5.4,9.2,5.8,9.1,6.2,9c0.2,0,0.4,0,0.6,0.1
			c0.5,0.2,0.9,0.7,1,1.2c0,0.1,0,0.2-0.1,0.2c0,0-0.1,0-0.1,0c-0.1,0-0.1,0-0.2-0.1c-0.2-0.3-0.5-0.5-0.9-0.5c0,0-0.1,0-0.1,0
			c-0.2,0.1-0.2,0.3-0.2,0.6c0,0.7,0.5,1.3,1.1,1.4c0.6,0.2,1.3,0.4,2,0.4c0.9,0,1.7-0.1,2.6-0.4c-1.1-0.2-2.1-0.9-2.5-1.9
			C9.1,9.5,9,8.8,8.9,8.1C8.8,7.6,8.7,7,8.4,6.8c-0.1,0-0.1-0.1-0.1-0.2c0-0.1,0.1-0.2,0.2-0.2C8.7,6.4,8.8,6.3,9,6.3
			c0.4,0,0.7,0.1,1,0.3C10.4,6,11,5.4,11.7,5c0.2-0.1,0.4-0.3,0.5-0.4c0.3-0.2,0.5-0.6,0.6-0.9c0-0.1,0.1-0.2,0.2-0.2h0
			c0.1,0,0.2,0,0.2,0.1c0.5,0.6,0.7,1.3,0.7,2c0,0.4-0.1,0.7-0.1,1.1c0.6-0.5,1.3-0.7,2.1-0.8l0,0c0.1,0,0.2,0.1,0.2,0.2
			c0,0.1,0,0.2-0.1,0.3c-0.5,0.2-0.6,0.4-0.6,0.4c0,0.1,0.1,0.2,0.2,0.3l0.1,0.1c0.7,0.5,1.1,1.3,0.9,2.1c0,0.1,0,0.2-0.1,0.2
			c0,0-0.1,0-0.1,0l0,0l-0.1,0c-0.3-0.1-0.5-0.2-0.8-0.2c-0.2,0-0.3,0-0.5,0.1c-0.3,0.3-0.4,0.6-0.4,1c0,0.2,0.1,0.4,0.2,0.5
			c1-0.3,2-0.6,2.1-0.6l-0.1-0.1c0-0.1,0-0.3,0-0.4C17.3,8.4,18.8,7,21.4,7s4.1,1.4,4.4,2.8c0,0.1,0,0.3,0,0.4l0,0.1
			c0.2,0,1.2,0.2,2.2,0.6c0.1-0.2,0.2-0.3,0.2-0.5c0.1-0.4-0.1-0.7-0.4-1c-0.1-0.1-0.3-0.1-0.5-0.1c-0.3,0-0.6,0.1-0.8,0.2l-0.1,0
			c-0.1,0-0.1,0-0.1,0c-0.1,0-0.1-0.1-0.1-0.2c-0.1-0.8,0.3-1.7,1-2.1L27.2,7c0.1-0.1,0.2-0.2,0.2-0.3c0-0.1-0.1-0.2-0.6-0.4
			c-0.1,0-0.2-0.2-0.1-0.3c0-0.1,0.1-0.2,0.2-0.2c0.8,0.1,1.5,0.4,2.2,0.8C29,6.3,29,5.9,29,5.6c0-0.7,0.2-1.5,0.7-2
			c0-0.1,0.1-0.1,0.2-0.1c0.1,0,0.2,0.1,0.2,0.2c0.1,0.4,0.4,0.7,0.6,0.9c0.2,0.1,0.3,0.3,0.5,0.4C32,5.4,32.5,6,33,6.7
			c0.3-0.2,0.7-0.3,1-0.3c0.2,0,0.3,0,0.5,0.1c0.1,0,0.2,0.1,0.2,0.2c0,0.1,0,0.2-0.1,0.2c-0.2,0.1-0.3,0.7-0.4,1.3l0,0.1
			c-0.1,0.7-0.3,1.3-0.5,1.9c-0.4,1-1.4,1.7-2.5,1.9c0.8,0.3,1.7,0.4,2.6,0.4c0.7,0,1.4-0.1,2-0.4c0.6-0.2,1.1-0.8,1.1-1.4
			c0-0.2-0.1-0.4-0.2-0.6c0,0-0.1,0-0.1,0c-0.3,0.1-0.6,0.3-0.9,0.5c0,0-0.1,0.1-0.2,0.1c0,0-0.1,0-0.1,0c-0.1-0.1-0.1-0.2-0.1-0.2
			c0.1-0.5,0.5-1,1-1.2c0.2-0.1,0.4-0.1,0.6-0.1c0.4,0,0.9,0.1,1.2,0.4c0.4,0.3,0.6,0.7,0.6,1.2v0.3c0,0.5-0.2,1.1-0.4,1.5
			c0.6,0,1.1-0.3,1.5-0.6c0,0,0.1-0.1,0.1-0.1c0,0,0.1,0,0.1,0c0.1,0,0.1,0.1,0.1,0.2c-0.2,1.2-1.1,2.1-2.2,2.2
			c0.7,0.5,1.1,1.2,1.2,2c0,0.1-0.1,0.2-0.2,0.2c-0.2,0-0.3,0-0.5,0c-0.2,0-0.4,0-0.6-0.1c0.7,0.8,1.2,1.8,1.3,2.9
			c0.1,1.3,0.3,2.6,0.7,3.9l0.1,0.5c0,0.1,0,0.2-0.1,0.2c0,0-0.1,0.1-0.1,0.1c0,0-0.1,0-0.1,0c-0.5-0.3-0.9-0.6-1.2-0.9
			c-0.1,0.6-0.2,1.2-0.2,1.8c0,1.7,0.5,3.3,1.5,4.6c0,0,0.1,0.1,0.1,0.2c0,0.1,0,0.1-0.1,0.2c-0.1,0.1-0.2,0.1-0.3,0.2
			c0.1,0,0.2,0,0.3,0.1c0.1,0,0.2,0,0.3-0.1c0.4-0.2,0.5-1.1,0.5-1.3c0-0.1,0.1-0.2,0.2-0.2l0.1,0c0.1,0,0.2,0,0.2,0.1
			c0.2,0.7,0.3,1.3,0.2,2v0.1c-0.1,0.3-0.1,0.6-0.3,0.8c-0.3,0.6-0.9,0.9-1.6,0.9h-0.1c-0.5,0-1-0.2-1.4-0.6
			c-0.6-0.7-0.9-1.5-0.9-2.4l0,0.1c-0.1,0.4-0.1,0.8-0.2,1.2c-0.2,1.1-0.2,2.2-0.2,3.4c0,0.1,0,0.2-0.1,0.2c0,0-0.1,0.1-0.1,0.1l0,0
			l-0.1,0c0,0-0.2-0.1-0.3-0.1c0,0.1,0,0.3,0,0.4c0,0.3,0.1,0.5,0.2,0.8c0.2,0.3,0.6,0.6,1,0.6c0.1,0,0.1,0,0.2,0
			c0.3-0.2,0.5-0.5,0.5-0.9c0-0.1,0.1-0.2,0.2-0.2c0.1,0,0.2,0.1,0.2,0.2c0,0.2,0.1,2.4-1.7,2.8c-0.1,0-0.3,0-0.4,0
			c-0.6,0-1.1-0.3-1.5-0.8c-0.4-0.6-0.6-1.3-0.6-2v-0.2c-0.5,0.8-1,1.7-1.5,2.6c0,0.1-0.1,0.1-0.2,0.1h0c-0.1,0-0.2,0-0.2-0.1l0,0
			l-0.4-0.4C31,37.5,29.5,39,29.5,39c0,0-0.1,0.1-0.2,0.1h-0.1c-0.1,0-0.1-0.1-0.2-0.2c0-0.2-0.1-0.5-0.1-0.7c0-0.1,0-0.3,0-0.4
			c0-0.2,0.1-0.5,0.1-0.7c-1,0.5-2,1.1-2.9,1.7c-0.8,0.6-1.6,1.2-2.3,1.9c0,0-0.1,0.1-0.2,0.1c-0.1,0-0.2-0.1-0.2-0.2
			c0,0,0-0.1,0-0.1c-0.6,0.6-1,1.5-1.1,2.4V43c0,0.5,0.1,0.9,0.3,1.3c0.1,0.1,0.2,0.1,0.4,0.1c0,0,0.1,0,0.1,0
			c0.4-0.1,0.8-0.4,1-0.8c0.1-0.2,0.1-0.4,0.1-0.6c0-0.4-0.1-0.8-0.3-1.1l0-0.1l0-0.1c0-0.1,0.1-0.1,0.2-0.1h0c0.2,0,0.5,0,0.7,0.1
			l0.2,0c0.1-1,0.5-1.9,1-2.7c0-0.1,0.1-0.1,0.2-0.1c0.1,0,0.1,0,0.1,0c0.6,0.4,1.1,0.8,1.6,1.4c0.8-0.2,1.5-0.3,2.3-0.2h0.1
			c0.5-0.6,1.1-1.1,1.7-1.5c0.5-0.3,1.1-0.5,1.7-0.5c0.8,0,1.5,0.1,2.2,0.3l0.1,0c0.8,0.2,1.5,0.3,2.3,0.3h0.1c0.8,0,1-0.2,1.1-0.2
			c0,0,0-0.1,0-0.1c-0.2-0.3-0.4-0.5-0.6-0.8L38.6,37c-0.5-0.9-0.5-1.9-0.2-2.8l0.1-0.2c0.1-0.2,0.3-0.4,0.5-0.4
			c0.7-0.1,3.6-0.4,3.6-0.4h0c0.1,0,0.1,0,0.2,0.1l0.1,0.1v0.1c0,0-0.4,1.2-0.5,1.4c0.1,0.1,0.5,0.7,0.5,0.7l0,0.1l0,0.1
			c0,0.1-0.1,0.1-0.2,0.2L41,36.2c0.4,0.6,0.5,1.3,0.4,2.1v0.1c0,0.1-0.1,0.3-0.1,0.4c-0.1,1-0.8,1.8-1.7,2.2
			c-0.5,0.2-1,0.3-1.6,0.2l0,0c-0.5,0-1.1,0-1.6-0.1l-0.3,0c-0.3,0-0.6,0-0.9-0.1h-0.6c-0.7,0-1.4,0-2.1,0.1
			c0.6,0.7,1.3,1.3,2.1,1.8c1.6,1.1,1.4,2,0.9,2.6c-0.8,1.2-1.6,1.8-2.5,1.8c-1-0.2-2-0.8-2.5-1.7c-0.2,0.2-0.5,0.5-0.8,0.8
			c-2.3,2-5.3,3.1-8.4,3.2L21.5,49.5L21.5,49.5z M10.9,43.3c0.7,1,1.6,1.9,2.5,2.7c2.2,1.9,5.1,3,8.1,3.1c3,0,5.8-1.1,8.1-3.1
			c1-0.8,1.8-1.7,2.5-2.7h-1.7c-0.3,0.4-0.7,0.8-1.1,1.2c-2.1,2-4.9,3.1-7.7,3.2c-3.5-0.2-6.7-1.8-8.9-4.4L10.9,43.3z M9,46.6
			c0.3,0.2,0.6,0.3,0.9,0.3c1.2,0,2.1-1.5,2.1-1.7c-0.3-0.2-0.5-0.5-0.8-0.8C10.8,45.4,10,46.2,9,46.6L9,46.6z M31.8,44.4
			c-0.2,0.2-0.5,0.5-0.8,0.8c0.2,0.3,1.1,1.6,2.1,1.6l0,0c0.3,0,0.6-0.1,0.9-0.3C33,46.2,32.2,45.4,31.8,44.4L31.8,44.4z M14.4,42.8
			c0.1,0,0.1,0,0.2,0.1c1.7,2,4.3,3.1,6.9,3c2.6,0.1,5.2-1,6.9-3c0,0,0.1-0.1,0.2-0.1h1.6c-0.3-0.4-0.6-0.9-0.7-1.4L29,41.9
			l-0.9,0.7c-0.6,0.5-1.2,0.9-1.8,1.4c-0.3,0.2-0.7,0.4-1,0.6c-0.5,0.3-1.1,0.4-1.7,0.4c-0.2,0-0.4,0-0.6-0.1
			c-0.8-0.3-1.5-1-1.6-1.9c-0.1,0.9-0.7,1.6-1.6,1.9c-0.2,0-0.4,0.1-0.6,0.1c-0.6,0-1.2-0.1-1.7-0.4c-0.3-0.2-0.7-0.4-1-0.6
			c-0.7-0.4-1.2-0.9-1.8-1.4l-0.9-0.7c-0.2-0.2-0.4-0.3-0.6-0.4c-0.2,0.5-0.4,1-0.7,1.4L14.4,42.8z M10.3,43.1
			c-0.2,0.2-0.5,0.4-0.7,0.6c-1.5,1.1-1.6,1.7-1.6,1.8c0.1,0.1,0.1,0.2,0.2,0.3C9.4,45.5,10.2,44.4,10.3,43.1L10.3,43.1z M32.8,43.2
			c0.1,1.3,1,2.3,2.2,2.6l0-0.1c0.1-0.1,0.1-0.1,0.1-0.2c0,0-0.1-0.7-1.6-1.8C33.3,43.5,33,43.3,32.8,43.2L32.8,43.2L32.8,43.2z
			 M30.5,40.7c0.2,0.8,0.7,1.6,1.3,2.1h0.6c-0.7-0.7-1.2-1.5-1.6-2.4L30.5,40.7z M11.3,42.8c0.6-0.6,1.1-1.3,1.2-2.1l-0.2-0.2
			l-0.1-0.1c-0.3,0.9-0.9,1.8-1.6,2.4L11.3,42.8L11.3,42.8z M15.3,36.2c1,0.3,2,0.8,2.9,1.4c1.7,0.9,2.9,2.4,3.3,4.3
			c0.4-1.8,1.6-3.4,3.3-4.3c0.9-0.6,1.9-1,2.9-1.4L27,35.5l0-0.1c-0.8,0.5-3.4,2.3-4.7,3.2c-0.4,0.3-0.7,0.4-0.7,0.5
			c0,0-0.1,0-0.1,0c-0.1,0-0.1,0-0.1,0l-0.3-0.2c-1.1-0.7-4.4-3-5.1-3.5v0C15.8,35.7,15.6,35.9,15.3,36.2L15.3,36.2z M33.6,39.3
			c-0.6,0-1.2,0.1-1.8,0.4c0.2,0.2,0.3,0.6,0.6,0.9c0.8-0.2,1.6-0.2,2.4-0.2h0.6c0.4,0,0.8,0,1.2,0.1c0.5,0,1.1,0.1,1.6,0.1
			c0.5,0,0.9,0,1.3-0.2c0.4-0.2,0.8-0.5,1.1-0.9c-0.6,0.3-1.3,0.4-1.9,0.4c-1,0-2.1-0.1-3.1-0.3c-0.6-0.1-1.2-0.2-1.6-0.2
			C33.8,39.3,33.7,39.3,33.6,39.3z M8.3,40.4c0.8,0,1.6,0.1,2.4,0.2c0.1-0.3,0.3-0.6,0.5-1c-0.6-0.2-1.2-0.3-1.7-0.3H9.1
			c-0.5,0-1.1,0.1-1.6,0.2c-1,0.2-2.1,0.3-3.1,0.3c-0.7,0-1.3-0.1-1.9-0.4c0.2,0.4,0.6,0.7,1.1,0.9c0.4,0.2,0.9,0.2,1.3,0.2
			c0.5,0,1.1-0.1,1.6-0.1c0.4,0,0.9-0.1,1.2-0.1L8.3,40.4z M14.9,21.8l0,0.1v10.7c0,1,0.5,1.9,1.3,2.4c0.5,0.4,2.8,1.9,4.2,2.9
			l1.1,0.8l0.8-0.6c1.4-1,3.8-2.6,4.4-3c0.8-0.5,1.4-1.4,1.3-2.4V21.9l0-0.1c0,0,0.6-0.9,0.9-1.3c-0.8,0-3.7,0-3.9,0
			c-1,0.8-2.2,1.3-3.4,1.3l-0.1-0.1v0.1h-0.1c-1.3-0.1-2.5-0.5-3.4-1.3c-0.3,0-3.2,0-3.9,0L14.9,21.8z M4.2,34.5
			c-0.7,0.7-1.4,1.3-1.8,1.7c-0.1,0.1-0.2,0.3-0.3,0.5c-0.1,0.6,0.1,1.2,0.6,1.5l0,0c0-0.2,0.2-0.5,0.7-1L4,36.6
			c0.2-0.4,0.3-0.8,0.3-1.3C4.3,35,4.3,34.7,4.2,34.5z M38.8,34.5c-0.1,0.3-0.1,0.6-0.1,0.9c0,0.5,0.1,0.9,0.3,1.3l0.5,0.6
			c0.5,0.5,0.7,0.8,0.7,1l0,0c0.5-0.3,0.7-1,0.6-1.6c-0.1-0.2-0.2-0.3-0.3-0.5C40,35.5,39.2,34.8,38.8,34.5z M42.4,33.5
			c-0.8,0.1-2.6,0.3-3.2,0.4c-0.1,0-0.1,0.1-0.1,0.1l0.2,0.1c0.4,0.3,1,0.9,1.6,1.5l1.6-0.3c-0.2-0.2-0.4-0.5-0.4-0.5L42,34.7v-0.1
			L42.4,33.5z M2.3,35.6c0.4-0.5,1-1,1.7-1.7l0,0c-0.1,0-0.1,0-0.2-0.1c-0.6-0.1-2.4-0.3-3.2-0.4C0.8,33.9,1,34.7,1,34.7v0.1l0,0.1
			l-0.4,0.6L2.3,35.6z M27.5,35.1c0.2,0,0.4,0.1,0.7,0.1c0.9,0,1.8-0.3,2.6-0.8c-0.7-0.2-1.3-0.8-1.6-1.5c-0.4-1-0.2-2.2,0.6-3
			c0-0.1,0.1-0.1,0.2-0.1c0.1,0,0.2,0.1,0.2,0.2c0.2,0.9,0.6,1.6,1.3,2.2c0.4-0.3,0.7-0.5,1.1-0.7c0.3-0.2,0.6-0.3,0.7-0.4
			C33.2,31,33,31,32.8,30.9c-0.1,0-0.1-0.1-0.2-0.2c0-0.1,0-0.2,0.1-0.2c1.2-0.9,2.2-2.1,2.9-3.4c0.1-0.2,0.3-0.5,0.4-0.8
			c-0.6,0.4-1.2,0.7-1.9,0.8c-0.3,0.1-0.6,0.1-0.9,0.2L33,27.3c-1.1,0.1-2.2,0.5-3.2,1.1c0,0-0.1,0.1-0.2,0.1c0,0-0.1,0-0.1,0
			c-0.1-0.1-0.1-0.2-0.1-0.3c0.1-0.3,0.1-0.6,0-0.7c-0.1-0.1-0.2-0.1-0.4-0.1c-0.1,0-0.3,0-0.4,0.1l0.1,5.2
			C28.6,33.6,28.2,34.5,27.5,35.1L27.5,35.1z M12.3,34.4c0.8,0.5,1.7,0.7,2.6,0.8c0.2,0,0.4,0,0.7-0.1c-0.8-0.6-1.2-1.5-1.1-2.5
			v-5.2h-0.4c-0.2,0-0.3,0.1-0.4,0.1c-0.1,0.1-0.1,0.4,0,0.7c0,0.1,0,0.2-0.1,0.3c0,0-0.1,0-0.1,0c-0.1,0-0.1,0-0.2-0.1
			c-1-0.6-2.1-1-3.2-1.1l-0.4-0.1c-0.3-0.1-0.6-0.1-0.8-0.2C8.2,27,7.6,26.7,7,26.3c0.1,0.2,0.3,0.5,0.4,0.8
			c0.7,1.3,1.7,2.5,2.9,3.4c0.1,0,0.1,0.1,0.1,0.2c0,0.1-0.1,0.2-0.2,0.2C10.1,31,9.9,31,9.8,31.1c0.4,0.2,1.6,0.9,1.9,1.1
			c0.6-0.6,1.1-1.4,1.2-2.2c0-0.1,0.1-0.1,0.2-0.2h0c0.1,0,0.1,0,0.2,0.1c0.8,0.8,1,2,0.6,3C13.7,33.6,13.1,34.2,12.3,34.4
			L12.3,34.4z M31.1,23c0.1,0,0.1,0,0.2,0.1c0.1,0.1,0.1,0.2,0.1,0.3c-0.3,0.6-0.3,1.3-0.1,1.9c0.2,0.3,0.5,0.6,0.9,0.6
			c0.1,0,0.2,0,0.2,0c0.3,0,0.7-0.2,0.8-0.5c0.2-0.5,0-1-0.3-1.3c-0.1-0.1-0.1-0.1-0.1-0.2c0-0.1,0.1-0.1,0.1-0.2
			c0.4-0.1,0.8-0.2,1.2-0.2c0.1,0,0.2,0,0.3,0c0-0.5,0.1-1,0.2-1.4c0-0.1,0.1-0.1,0.2-0.1c0.1,0,0.2,0.1,0.2,0.1
			c0.3,0.4,0.7,0.7,1.2,0.8c-0.3-1.2-0.7-2.4-1.4-3.4c-0.9-1.2-2-2.3-3.2-3.3c-0.5,0.5-1.3,0.8-2,0.8h-0.1l-0.1-0.1l0,0.1h0
			l-0.1-0.1l0-0.1v-0.1c0.2-0.6,0.2-1.2,0-1.8c-1.9-0.8-3.9-1.4-5.9-1.7c0.8,1.5,2.4,2.5,4.1,2.3c0.3,0,0.5,0,0.8-0.1l0,0
			c0.1,0,0.1,0,0.2,0.1l0.1,0.1l0,0.1l-1.4,3.1c0,0.1-0.1,0.1-0.2,0.1c0,0-0.7,0.1-0.9,0.1c-0.2,0.3-0.5,0.6-0.8,0.9h1.9
			c0.7-1.2,1.9-2,3.3-2.1c0.1,0,0.3,0,0.4,0c0.8,0.1,1.5,0.5,2,1.1c0.6,0.9,0.8,1.9,0.8,3c0,0.1-0.1,0.1-0.1,0.2l-0.1,0
			c-0.1,0-0.1,0-0.1-0.1c-0.4-0.3-1-0.5-1.5-0.5c-0.8,0-1.6,0.3-2.2,0.8l0.2,0.2c0.1,0.2,0.2,0.4,0.2,0.6c0.2-0.1,0.7-0.4,0.7-0.4
			C31,23,31.1,23,31.1,23L31.1,23z M8.9,23.4c0.4,0,0.8,0.1,1.2,0.2c0.1,0,0.1,0.1,0.1,0.2c0,0.1,0,0.2-0.1,0.2
			c-0.4,0.3-0.5,0.8-0.3,1.3c0.2,0.3,0.5,0.5,0.8,0.5c0.1,0,0.2,0,0.2,0c0.4,0,0.7-0.2,0.9-0.6c0.2-0.6,0.1-1.3-0.1-1.9
			c0-0.1,0-0.2,0.1-0.3c0,0,0.1-0.1,0.2-0.1c0,0,0.1,0,0.1,0l0,0c0,0,0.5,0.2,0.7,0.4c0.1-0.2,0.3-0.7,0.4-0.9
			c-0.6-0.5-1.4-0.7-2.2-0.8c-0.5,0-1.1,0.2-1.5,0.5c-0.1,0-0.1,0-0.2,0.1l-0.1,0c-0.1,0-0.1-0.1-0.1-0.2c0-0.4-0.2-3.7,2.7-4.1
			c0.1,0,0.3,0,0.4,0c1.4,0.1,2.6,0.9,3.4,2.1l1.9,0c-0.3-0.3-0.6-0.6-0.9-0.9l0,0c-0.1,0-0.8-0.1-0.8-0.1c-0.1,0-0.2-0.1-0.2-0.1
			l-1.4-3l0-0.1l0-0.1c0-0.1,0.1-0.1,0.2-0.1c0.3,0,0.5,0.1,0.8,0.1c1.7,0.1,3.4-0.8,4.1-2.3c-2,0.3-4,0.9-5.9,1.7
			c-0.1,0.6-0.1,1.2,0.1,1.7v0.1l0,0.1v0l-0.1,0.1h-0.1c-0.8,0-1.5-0.3-2-0.8c-1.2,1-2.2,2.1-3.2,3.3c-0.7,1-1.2,2.2-1.4,3.4
			c0.5,0,1-0.3,1.3-0.8c0-0.1,0.1-0.1,0.2-0.1c0.1,0,0.2,0,0.2,0.1c0.1,0.5,0.2,1,0.2,1.4C8.6,23.4,8.8,23.4,8.9,23.4L8.9,23.4z
			 M16.2,16.4c0.2,0.4,0.4,0.8,0.5,1c0.1,0.2,0.2,0.3,0.6,0.3H18c0.1,0,0.2,0.1,0.2,0.2c0.4,1.4,1.8,2.4,3.3,2.3h0.1
			c1.5,0,2.8-0.9,3.2-2.3c0-0.1,0.1-0.1,0.2-0.1h0.8c0.4,0,0.5-0.1,0.6-0.3c0.1-0.2,0.3-0.6,0.5-0.9l0.2-0.5
			c-1.3-0.1-2.6-0.8-3.4-1.9l-0.9,0.8c-0.5,0.4-0.9,0.9-1,0.9l0,0.1c0,0.4,0.2,1.5,1.9,1.9c0.1,0,0.1,0.1,0.1,0.1l0,0.1l0,0.1
			c-0.4,0.9-1.3,1.5-2.3,1.4h-0.1c-1,0.1-1.9-0.5-2.3-1.4V18l0-0.1c0-0.1,0.1-0.1,0.1-0.1c1.7-0.4,1.9-1.5,1.9-1.9v-0.1
			c-0.1,0-1.3-1.2-1.8-1.7c-0.8,1.1-2,1.8-3.4,1.9L16.2,16.4z M21.5,7.5c-2.4,0-3.7,1.3-3.9,2.4c-0.2,1.2,0.6,2.3,2.1,2.9
			c0.1,0.1,0.2,0.2,0.1,0.3c-0.1,0.2-0.1,0.4-0.2,0.6c0.3,0.2,0.6,0.5,0.9,0.8c0.5,0.5,1,0.9,1.1,1c0-0.1,1.5-1.5,1.9-1.9
			c-0.1-0.2-0.2-0.4-0.3-0.6c0-0.1,0-0.1,0-0.2c0-0.1,0.1-0.1,0.1-0.1c1.5-0.6,2.3-1.6,2.1-2.8C25.2,8.7,23.9,7.5,21.5,7.5L21.5,7.5
			L21.5,7.5z M18.2,12.4c-0.4,0-3.2,0.3-4.4,1.8c1.6-0.6,3.3-1.1,4.9-1.4C18.5,12.7,18.4,12.5,18.2,12.4L18.2,12.4z M24.3,12.8
			c1.7,0.3,3.3,0.7,4.9,1.4c-1.2-1.5-3.9-1.7-4.4-1.8C24.7,12.5,24.5,12.7,24.3,12.8L24.3,12.8z M25.8,10.8c-0.1,0.4-0.2,0.7-0.5,1
			c0.8-0.1,1.5-0.3,2.2-0.6c-0.5-0.1-1.1-0.3-1.4-0.4L25.8,10.8z M15.5,11.3c0.7,0.3,1.4,0.5,2.2,0.6c-0.2-0.3-0.4-0.7-0.5-1
			l-0.3,0.1C16.5,11,16,11.1,15.5,11.3L15.5,11.3z M21.5,11.3c-0.2,0-0.4,0-0.6,0h-0.1c-0.4,0-0.8-0.1-1.2-0.3
			c-0.4-0.1-0.7-0.3-1-0.6c-0.2-0.2-0.3-0.4-0.3-0.7c0-0.3,0.1-0.5,0.3-0.7c0.8-0.6,1.8-0.9,2.9-0.8c1.1-0.1,2.1,0.2,2.9,0.9
			c0.2,0.2,0.3,0.4,0.3,0.7c0,0.8-1,1.4-2.5,1.5C22,11.3,21.7,11.3,21.5,11.3L21.5,11.3z M21.5,8.7H21l0.1,2.2c0.1,0,0.2,0,0.3,0
			h0.1c0.2,0,0.3,0,0.5,0l0-2.2c-0.1,0-0.2,0-0.4,0C21.6,8.7,21.6,8.7,21.5,8.7L21.5,8.7z M22.4,10.8c0.3,0,0.5-0.1,0.8-0.2l0-1.7
			c-0.2,0-0.5-0.1-0.7-0.1L22.4,10.8z M20.6,8.7c-0.3,0-0.5,0.1-0.8,0.2l0.1,1.7c0.2,0,0.4,0.1,0.8,0.1L20.6,8.7z M17.9,6.3
			c-0.1,0-0.2-0.1-0.2-0.2l-1.4-5c0-0.1,0-0.2,0.1-0.3c0,0,0.1,0,0.1,0c0.1,0,0.1,0,0.2,0.1c0.1,0.2,0.3,0.3,0.5,0.5
			c0.1,0,0.1,0.1,0.2,0.1c0.2,0,0.3,0.1,0.5,0.3c0.2,0.2,0.3,0.5,0.2,0.8v0.2c0,0.1,0.1,0.1,0.2,0.1h0.1c0.1,0,0.1,0,0.2-0.1
			c0.1-0.1,0.1-0.2,0-0.3c0,0-0.3-0.6-0.1-1.1c0.2-0.3,0.6-0.4,0.9-0.2c0.1,0.1,0.1,0.1,0.2,0.2c0.1,0.3,0.1,0.7-0.1,1
			c-0.1,0.1-0.1,0.2,0,0.3C19.5,2.9,19.6,3,19.8,3h0.1c0.4,0,0.6-0.1,0.7-0.2c0.1-0.1,0.1-0.1,0.1-0.2c0-0.1,0-0.1-0.1-0.2
			c-0.2-0.1-0.3-0.3-0.3-0.5c0-0.2,0.1-0.5,0.3-0.6c0,0,0.1-0.1,0.1-0.1c0-0.1,0.1-0.2,0.1-0.3C20.8,0.5,20.8,0,21.5,0
			c0.6,0,0.7,0.5,0.8,0.8c0,0.1,0.1,0.3,0.1,0.3c0,0,0.1,0.1,0.1,0.1c0.2,0.1,0.3,0.4,0.3,0.6c0,0.2-0.1,0.4-0.3,0.5
			c-0.1,0.1-0.1,0.1-0.1,0.2c0,0.1,0,0.2,0.1,0.2C22.5,2.9,22.7,3,23.1,3h0.1c0.1,0,0.2-0.1,0.3-0.2c0.1-0.1,0.1-0.2,0-0.3
			c-0.2-0.3-0.2-0.7-0.1-1c0.1-0.2,0.3-0.3,0.6-0.3c0.2,0,0.5,0.1,0.6,0.3c0.1,0.3,0.1,0.7-0.1,1.1c-0.1,0.1-0.1,0.2,0,0.3
			c0,0,0.1,0.1,0.1,0.1h0l0.1,0c0.1,0,0.2,0,0.2-0.1c0,0,0-0.1,0-0.2c-0.1-0.3,0-0.6,0.2-0.8c0.1-0.1,0.3-0.2,0.5-0.3
			c0.1,0,0.1-0.1,0.2-0.1c0.2-0.1,0.3-0.3,0.5-0.4l0,0l0.1,0c0,0,0.1-0.1,0.1-0.1l0.1,0c0.1,0,0.2,0.2,0.1,0.3l-1.3,5
			c0,0.1-0.1,0.2-0.2,0.2L17.9,6.3z M17.7,4.7l7.6,0l0.1-0.6c0.2-0.8,0.5-1.7,0.6-2.2c-0.1,0.1-0.2,0.1-0.3,0.1
			c-0.1,0-0.2,0.1-0.3,0.1c-0.1,0.1-0.1,0.2-0.1,0.4v0.3c0,0.1,0,0.2-0.1,0.3c-0.1,0.2-0.4,0.3-0.6,0.3h-0.1c-0.2,0-0.4-0.1-0.5-0.3
			C24,3,24,2.9,24,2.9c0,0,0,0.1,0,0.1c-0.1,0.3-0.4,0.5-0.7,0.5h-0.1c-0.4,0-0.7-0.1-1-0.3C22,3,21.9,2.8,21.9,2.6
			c0-0.2,0.1-0.4,0.3-0.5c0.1-0.1,0.1-0.1,0.1-0.2c0-0.2,0-0.2-0.1-0.2c-0.1-0.1-0.2-0.2-0.2-0.3c0-0.1-0.1-0.3-0.1-0.4
			c-0.1-0.3-0.1-0.4-0.3-0.4s-0.3,0.1-0.3,0.4c0,0.2-0.1,0.3-0.1,0.4c-0.1,0.1-0.1,0.2-0.2,0.3c-0.1,0.1-0.2,0.2-0.1,0.3
			c0,0.1,0,0.1,0.1,0.2c0.2,0.1,0.3,0.3,0.3,0.5c0,0.2-0.1,0.4-0.2,0.6c-0.3,0.2-0.7,0.3-1,0.3h-0.1c-0.3,0-0.6-0.2-0.7-0.5
			c0,0,0-0.1,0-0.1C19,2.9,19,3,19,3c-0.1,0.2-0.3,0.3-0.5,0.3h-0.2c-0.2,0-0.4-0.1-0.6-0.3c-0.1-0.1-0.1-0.2-0.1-0.3V2.4
			c0-0.1,0-0.3-0.1-0.4c-0.1-0.1-0.2-0.1-0.3-0.1c-0.1,0-0.2-0.1-0.3-0.1L17.7,4.7z M19.1,1.6c-0.1,0-0.2,0.1-0.2,0.1
			c0,0,0,0.1,0,0.1c0,0.2,0.1,0.3,0.1,0.5c0,0,0,0.1,0,0.1c0-0.1,0.1-0.1,0.1-0.2c0.1-0.1,0.1-0.3,0.1-0.5
			C19.2,1.6,19.1,1.6,19.1,1.6L19.1,1.6z M24,1.6c-0.1,0-0.1,0-0.1,0.1c-0.1,0.2,0,0.3,0.1,0.5c0,0,0.1,0.1,0.1,0.2c0,0,0-0.1,0-0.1
			c0.1-0.1,0.1-0.3,0.1-0.5c0-0.1,0-0.1,0-0.1C24.1,1.6,24.1,1.6,24,1.6L24,1.6z"/>
		<path id="Path_59" class="st0" d="M17.9,6.2h7.3c0.1,0,0.2-0.1,0.2-0.1l1.3-5c0-0.1,0-0.2-0.1-0.2c-0.1,0-0.2,0-0.2,0.1
			c-0.1,0.2-0.3,0.3-0.5,0.5c-0.1,0-0.2,0.1-0.2,0.1c-0.2,0-0.3,0.1-0.4,0.2C25,2,24.9,2.3,25,2.6c0,0.1,0,0.2,0,0.2
			c-0.1,0.1-0.2,0.1-0.3,0.1h-0.1c-0.1,0-0.1,0-0.1-0.1c-0.1-0.1-0.1-0.2,0-0.3c0.2-0.3,0.2-0.7,0.1-1c-0.1-0.2-0.3-0.3-0.5-0.2
			c-0.2,0-0.4,0.1-0.5,0.3c-0.1,0.3-0.1,0.6,0.1,0.9c0.1,0.1,0.1,0.3,0,0.4C23.6,3,23.4,3,23.3,3.1c-0.3,0.1-0.6,0-0.8-0.2
			c-0.1-0.1-0.1-0.2-0.1-0.2c0-0.1,0.1-0.1,0.1-0.2c0.2-0.1,0.2-0.3,0.2-0.5c0-0.2-0.1-0.4-0.3-0.6c-0.1-0.1-0.1-0.1-0.1-0.1
			c0-0.1-0.1-0.2-0.1-0.3c-0.1-0.3-0.1-0.7-0.8-0.7s-0.7,0.4-0.8,0.7c0,0.1,0,0.2-0.1,0.3c0,0.1-0.1,0.1-0.1,0.1
			c-0.2,0.1-0.3,0.4-0.3,0.6c0,0.2,0.1,0.4,0.2,0.5c0.1,0.1,0.1,0.1,0.1,0.2c0,0.1,0,0.2-0.1,0.2c-0.2,0.2-0.5,0.2-0.8,0.2
			c-0.1,0-0.3-0.1-0.3-0.2c-0.1-0.1-0.1-0.3,0-0.4c0.2-0.3,0.2-0.6,0.1-0.9c-0.1-0.2-0.3-0.3-0.5-0.3c-0.2,0-0.4,0.1-0.5,0.2
			c-0.1,0.3-0.1,0.7,0.1,1c0.1,0.1,0.1,0.2,0,0.3c0,0.1-0.1,0.1-0.1,0.1h0c-0.1,0-0.3,0-0.3-0.1c0-0.1,0-0.1,0-0.2
			c0-0.3,0-0.6-0.2-0.8c-0.1-0.1-0.3-0.2-0.4-0.2c-0.1,0-0.2-0.1-0.2-0.1c-0.2-0.1-0.4-0.3-0.5-0.5c-0.1-0.1-0.1-0.1-0.2-0.1
			c-0.1,0-0.1,0.1-0.1,0.2l1.3,5C17.7,6.2,17.8,6.2,17.9,6.2 M17,1.7c0.1,0.1,0.2,0.1,0.3,0.1c0.1,0,0.2,0.1,0.3,0.1
			c0.1,0.1,0.2,0.2,0.2,0.4v0.3c0,0.1,0,0.2,0.1,0.3c0.2,0.2,0.4,0.3,0.7,0.2c0.2,0,0.4-0.1,0.4-0.2c0.1-0.1,0.1-0.2,0.1-0.4
			c0-0.1,0-0.2-0.1-0.3c-0.1-0.2-0.1-0.3-0.1-0.5c0-0.1,0-0.1,0-0.2c0,0,0.1-0.1,0.2-0.1c0.1,0,0.2,0,0.2,0.1c0.1,0.2,0,0.4-0.1,0.6
			C19.1,2.4,19,2.7,19.2,3c0.1,0.3,0.4,0.4,0.7,0.4c0.4,0,0.8-0.1,1.1-0.3C21,3,21.1,2.8,21.1,2.6c0-0.2-0.1-0.4-0.2-0.5
			C20.8,2,20.7,2,20.7,1.9c0-0.1,0-0.2,0.1-0.3c0.1-0.1,0.2-0.2,0.2-0.3c0-0.1,0.1-0.3,0.1-0.4c0.1-0.3,0.1-0.4,0.4-0.4
			c0.3,0,0.3,0.1,0.4,0.4C22,1,22,1.1,22.1,1.3c0,0.1,0.1,0.2,0.2,0.3c0.1,0.1,0.2,0.2,0.1,0.3c0,0.1-0.1,0.1-0.1,0.2
			c-0.2,0.1-0.2,0.3-0.2,0.5c0,0.2,0.1,0.4,0.2,0.5c0.3,0.2,0.7,0.3,1.1,0.3c0.3,0,0.5-0.2,0.7-0.4c0.1-0.2,0.1-0.5-0.1-0.8
			c-0.1-0.2-0.1-0.4-0.1-0.6c0-0.1,0.1-0.1,0.2-0.1c0.2,0,0.2,0.1,0.2,0.1s0,0.1,0,0.2c0,0.2-0.1,0.3-0.1,0.5
			c-0.1,0.1-0.1,0.2-0.1,0.3c0,0.1,0,0.3,0.1,0.4c0.1,0.2,0.3,0.2,0.4,0.2c0.3,0,0.5-0.1,0.7-0.2c0.1-0.1,0.1-0.2,0.1-0.3V2.4
			c0-0.1,0.1-0.3,0.2-0.4c0.1-0.1,0.2-0.1,0.3-0.1c0.1-0.1,0.2-0.1,0.3-0.1l0.1-0.1c-0.1,0.6-0.5,2-0.8,3.1h-7.7
			C17.4,3.7,17,2.2,17,1.7L17,1.7 M18.5,3.2L18.5,3.2 M24.6,3.2L24.6,3.2 M42.9,35.4c0,0-0.4-0.6-0.5-0.8c0.1-0.1,0.4-1.4,0.4-1.4
			v-0.1l0-0.1C42.8,33,42.7,33,42.7,33c0,0-2.8,0.3-3.6,0.4c-0.2,0-0.4,0.2-0.5,0.4l-0.1,0.2c-0.3,0.9-0.2,1.9,0.2,2.7l0.6,0.6
			c0.2,0.2,0.4,0.5,0.6,0.8l0,0c0,0,0,0.1,0,0.1c-0.1,0.1-0.3,0.3-1.2,0.2c-0.8,0-1.7-0.1-2.5-0.3c-1.5-0.3-2.9-0.6-3.9,0.2
			c-0.6,0.5-1.2,1-1.7,1.6c-0.8,0-1.7,0.1-2.5,0.2c-0.5-0.5-1-1-1.6-1.4c-0.1-0.1-0.2,0-0.2,0.1c0,0,0,0,0,0c-0.5,0.8-0.9,1.7-1,2.7
			v0.1h-0.1c-0.3,0-0.6-0.1-0.8-0.1c-0.1,0-0.1,0-0.1,0.1l0,0.1l0,0.1c0.2,0.4,0.3,0.8,0.3,1.2c0,0.2,0,0.4-0.1,0.6
			c-0.2,0.4-0.6,0.7-1.1,0.8c0,0-0.1,0-0.1,0c-0.1,0-0.2-0.1-0.4-0.1l0,0c-0.3-0.4-0.4-0.9-0.4-1.4v-0.2c0.1-0.9,0.5-1.8,1.2-2.5
			c0,0.1,0,0.1,0,0.2c0,0.1,0.1,0.1,0.1,0.1c0.1,0,0.1,0,0.2,0c0.7-0.7,1.5-1.3,2.3-1.9c1-0.6,2-1.2,3-1.7c-0.1,0.3-0.1,0.5-0.2,0.8
			c0,0.2,0,0.3,0,0.4c0,0.2,0,0.5,0.1,0.7c0,0.1,0.1,0.2,0.2,0.1c0,0,0.1,0,0.1-0.1c0,0,1.6-1.7,1.8-1.9c0.2,0.2,0.4,0.4,0.4,0.4
			c0,0,0.1,0.1,0.2,0.1c0.1,0,0.1-0.1,0.1-0.1c0.5-0.9,1-1.8,1.6-2.7c0,0.1,0,0.3,0,0.4c0,0.7,0.2,1.4,0.6,1.9
			c0.4,0.6,1.1,0.8,1.8,0.7c1.8-0.3,1.7-2.5,1.7-2.7c0-0.1-0.1-0.2-0.2-0.2c-0.1,0-0.2,0.1-0.2,0.2c0,0.4-0.2,0.7-0.5,0.9
			c-0.5,0.1-1-0.1-1.2-0.6c-0.1-0.2-0.2-0.5-0.2-0.8c0-0.2,0-0.3,0.1-0.5c0.2,0.1,0.4,0.1,0.4,0.1c0.1,0,0.1,0,0.2,0
			c0.1,0,0.1-0.1,0.1-0.1c0-1.1,0-2.3,0.2-3.4c0.1-0.6,0.2-1.2,0.3-1.7c0,1,0.4,1.9,1,2.7c0.4,0.4,0.9,0.6,1.4,0.6
			c0.6,0,1.2-0.4,1.6-0.9c0.1-0.3,0.2-0.5,0.3-0.8v-0.1c0.1-0.7,0.1-1.4-0.2-2c0-0.1-0.1-0.1-0.2-0.1c-0.1,0-0.1,0.1-0.1,0.2
			c0,0,0,0,0,0c0.1,0.5-0.1,1-0.5,1.4c-0.3,0.1-0.6,0.1-0.8,0c0.2,0,0.3-0.1,0.4-0.2c0,0,0-0.1,0.1-0.1c0-0.1,0-0.1-0.1-0.1
			c-1-1.3-1.6-3-1.5-4.7c0-0.6,0.1-1.3,0.2-1.9c0.4,0.4,0.8,0.7,1.3,1c0.1,0,0.1,0,0.2,0c0.1,0,0.1-0.1,0.1-0.1v-0.1l-0.1-0.4
			c-0.4-1.3-0.6-2.6-0.7-4c-0.1-1.1-0.6-2.2-1.4-3c0.4,0.1,0.8,0.1,1.2,0.1c0.1,0,0.2-0.1,0.2-0.2l0,0c-0.1-0.8-0.5-1.6-1.2-2.1
			c1.2-0.1,2.1-1,2.3-2.1v-0.1c0-0.1,0-0.1-0.1-0.1c-0.1-0.1-0.2,0-0.2,0c-0.5,0.4-1,0.6-1.6,0.6c0.3-0.5,0.5-1,0.5-1.6v-0.3
			c0-0.4-0.3-0.9-0.6-1.1c-0.5-0.4-1.2-0.5-1.8-0.3c-0.5,0.2-0.9,0.6-1,1.2c0,0.1,0,0.2,0.1,0.2c0.1,0,0.2,0,0.2,0
			c0.4-0.4,0.8-0.6,1-0.5c0.2,0.1,0.3,0.4,0.3,0.6c0,0.7-0.5,1.3-1.2,1.5c-1.6,0.5-3.3,0.4-4.8-0.1c1.2-0.1,2.2-0.8,2.7-1.9
			c0.3-0.6,0.4-1.3,0.5-2c0.1-0.6,0.2-1.2,0.4-1.3c0.1,0,0.1-0.1,0.1-0.1v0c0-0.1-0.1-0.1-0.1-0.1c-0.5-0.2-1.1,0-1.5,0.3
			c-0.4-0.7-1-1.3-1.7-1.7c-0.2-0.1-0.4-0.3-0.5-0.4c-0.3-0.2-0.5-0.6-0.7-0.9c0-0.1-0.1-0.1-0.1-0.1c-0.1,0-0.1,0-0.2,0.1
			c-0.4,0.6-0.7,1.3-0.7,2c0,0.4,0.1,0.8,0.2,1.2c-0.6-0.5-1.4-0.9-2.2-0.9c-0.1,0-0.2,0.1-0.2,0.1c0,0.1,0,0.2,0.1,0.2
			c0.5,0.2,0.6,0.4,0.6,0.5c0,0.1-0.1,0.3-0.2,0.4L27.3,7c-0.7,0.5-1.1,1.3-0.9,2.1c0,0.1,0,0.1,0.1,0.1c0.1,0,0.1,0,0.2,0
			C27,9.1,27.5,9,28,9.2c0.3,0.3,0.4,0.6,0.4,1c0,0.2-0.1,0.4-0.2,0.6c-0.7-0.2-1.5-0.4-2.2-0.6v-0.1c0-0.1,0-0.3,0-0.4
			c-0.2-1.4-1.7-2.8-4.3-2.8h0c-2.6,0-4,1.4-4.3,2.8c0,0.1,0,0.3,0,0.4v0.1c-0.4,0.1-1.3,0.3-2.2,0.6c-0.1-0.2-0.2-0.4-0.2-0.6
			c0-0.5,0.1-0.9,0.4-1c0.4-0.2,0.9-0.2,1.4,0.1c0.1,0,0.1,0,0.2,0c0.1,0,0.1-0.1,0.1-0.1C17,8.3,16.6,7.5,15.9,7l-0.1-0.1
			c-0.1-0.1-0.2-0.2-0.2-0.4c0-0.1,0.1-0.3,0.6-0.5c0.1,0,0.1-0.1,0.1-0.2c0-0.1-0.1-0.1-0.2-0.1c-0.8,0.1-1.6,0.4-2.2,0.9
			C14,6.2,14,5.8,14,5.4c0-0.7-0.2-1.4-0.7-2c-0.1-0.1-0.1-0.1-0.2-0.1c-0.1,0-0.1,0.1-0.1,0.1c-0.1,0.4-0.4,0.7-0.7,0.9
			c-0.2,0.1-0.3,0.2-0.5,0.4c-0.7,0.4-1.3,1-1.7,1.7c-0.4-0.3-1-0.4-1.5-0.3c-0.1,0-0.1,0.1-0.1,0.1v0.2c0,0.1,0,0.1,0.1,0.1
			C8.8,6.9,8.9,7.5,9,8.1c0.1,0.7,0.3,1.4,0.5,2c0.5,1.1,1.5,1.8,2.7,1.9c-1.5,0.6-3.3,0.7-4.8,0.1c-0.7-0.2-1.1-0.8-1.2-1.5
			c0-0.2,0.1-0.5,0.3-0.6c0.2-0.1,0.6,0.1,1,0.5c0.1,0.1,0.2,0.1,0.2,0c0.1,0,0.1-0.1,0.1-0.2c0,0,0,0,0,0c-0.1-0.5-0.5-1-1-1.2
			C6.3,9,5.6,9.1,5.1,9.5c-0.4,0.3-0.6,0.7-0.6,1.1v0.3c0,0.6,0.2,1.1,0.5,1.6c-0.6,0-1.2-0.2-1.6-0.6c-0.1-0.1-0.2-0.1-0.2,0
			C3.1,11.9,3,11.9,3,12v0.1c0.2,1.2,1.2,2,2.3,2.1c-0.7,0.4-1.2,1.2-1.2,2.1l0,0c0,0.1,0.1,0.2,0.2,0.2c0.4,0.1,0.8,0,1.2-0.1
			c-0.8,0.8-1.3,1.9-1.4,3c-0.1,1.3-0.3,2.7-0.7,4l-0.1,0.4v0.1c0,0.1,0,0.1,0.1,0.1c0.1,0,0.1,0.1,0.2,0c0.5-0.3,0.9-0.6,1.3-1
			c0.1,0.6,0.2,1.3,0.2,1.9c0.1,1.7-0.5,3.3-1.5,4.7c-0.1,0.1-0.1,0.2,0,0.2c0,0,0,0,0,0C3.7,29.9,3.9,30,4,30
			c-0.2,0.1-0.5,0.2-0.8,0c-0.4-0.4-0.5-0.9-0.5-1.4c0-0.1,0-0.2-0.1-0.2c0,0,0,0,0,0c-0.1,0-0.2,0-0.2,0.1c-0.2,0.6-0.3,1.3-0.2,2
			v0.1c0.1,0.3,0.1,0.6,0.3,0.8c0.5,0.9,1.7,1.2,2.6,0.6c0.1-0.1,0.3-0.2,0.4-0.3c0.6-0.8,0.9-1.7,1-2.7c0.1,0.5,0.2,1.1,0.3,1.7
			C7,31.9,7.1,33,7,34.2c0,0.1,0,0.1,0.1,0.1c0,0,0.1,0,0.2,0c0,0,0.2-0.1,0.4-0.1c0,0.2,0.1,0.3,0.1,0.5c0,0.3-0.1,0.5-0.2,0.8
			c-0.2,0.4-0.7,0.7-1.2,0.6c-0.3-0.2-0.5-0.5-0.5-0.9C5.8,35,5.7,35,5.6,35c-0.1,0-0.2,0.1-0.2,0.2c0,0.2-0.1,2.4,1.7,2.7
			c0.7,0.1,1.4-0.1,1.8-0.7c0.4-0.6,0.6-1.2,0.6-1.9c0-0.1,0-0.3,0-0.4c1,1.5,1.6,2.7,1.6,2.7c0,0.1,0.1,0.1,0.1,0.1
			c0.1,0,0.1,0,0.2-0.1c0,0,0.3-0.3,0.4-0.4c0.2,0.2,1.8,1.9,1.8,1.9c0.1,0,0.1,0.1,0.2,0.1c0.1,0,0.1-0.1,0.1-0.1c0,0,0-0.3,0-0.7
			v-0.4c0-0.3-0.1-0.5-0.2-0.8c1,0.5,2.1,1.1,3,1.7c0.8,0.5,1.6,1.2,2.3,1.9c0.1,0.1,0.2,0,0.3-0.1c0,0,0,0,0,0c0-0.1,0-0.1,0-0.2
			c0.7,0.6,1.1,1.5,1.2,2.5v0.2c0,0.5-0.1,1-0.4,1.4l0,0c-0.1,0.1-0.2,0.1-0.4,0.1c-0.1,0-0.1,0-0.1,0c-0.5-0.1-0.8-0.4-1-0.8
			c-0.1-0.2-0.1-0.4-0.1-0.6c0-0.4,0.1-0.8,0.3-1.2l0-0.1l0-0.1c0-0.1-0.1-0.1-0.1-0.1c-0.2,0-0.6,0-0.8,0.1h-0.1v-0.1
			c-0.1-1-0.5-1.9-1-2.7C16.8,39,16.7,39,16.6,39c0,0,0,0,0,0c-0.6,0.4-1.1,0.8-1.6,1.4c-0.8-0.2-1.6-0.2-2.4-0.1l0,0
			c-0.6-0.6-1.2-1.1-1.8-1.6c-1-0.7-2.4-0.4-3.9-0.2c-0.8,0.2-1.6,0.3-2.4,0.3c-0.9,0-1.2-0.2-1.2-0.2c0,0,0-0.1,0-0.1l0,0
			c0.2-0.3,0.4-0.5,0.6-0.8L4.4,37c0.4-0.8,0.5-1.8,0.2-2.7L4.6,34c-0.1-0.2-0.3-0.3-0.5-0.4c-0.8-0.1-3.6-0.4-3.6-0.4
			c-0.1,0-0.1,0-0.2,0.1l-0.1,0.1v0.1c0,0,0.4,1.2,0.4,1.4c-0.1,0.1-0.5,0.8-0.5,0.8l0,0.1v0.1c0,0.1,0.1,0.1,0.1,0.1l1.8,0.3
			c-0.4,0.6-0.5,1.4-0.4,2.1v0.1c0,0.1,0.1,0.2,0.1,0.4c0.1,1,0.8,1.8,1.7,2.2c1,0.3,2.1,0.3,3.1,0.1C7,41,7.4,41,7.8,41
			c0.9,0,1.9,0,2.8,0.1c-0.6,0.7-1.4,1.4-2.2,1.9c-1.6,1.1-1.3,1.9-0.9,2.6c0.8,1.2,1.6,1.9,2.5,1.8c1-0.2,1.9-0.9,2.4-1.8
			c0.3,0.2,0.6,0.5,0.9,0.8c2.3,2,5.3,3.1,8.3,3.1h0c3.1,0,6-1.2,8.3-3.1c0.3-0.3,0.6-0.6,0.9-0.8c0.3,0.5,1.2,1.7,2.4,1.8
			c0.9,0,1.7-0.6,2.5-1.8c0.4-0.7,0.6-1.5-0.9-2.6c-0.8-0.5-1.6-1.2-2.2-1.9c0.9-0.1,1.8-0.2,2.8-0.1c0.4,0,0.8,0,1.2,0.1
			c1,0.2,2.1,0.1,3.1-0.1c0.9-0.4,1.5-1.2,1.7-2.2c0.1-0.1,0.1-0.3,0.1-0.4v-0.1c0.2-0.7,0-1.5-0.4-2.1l1.8-0.3
			c0.1,0,0.1-0.1,0.1-0.1v-0.1L42.9,35.4 M35.7,27.1c-0.7,1.3-1.7,2.5-3,3.4c-0.1,0-0.1,0.1-0.1,0.1v0c0,0.1,0.1,0.1,0.1,0.1
			c0.2,0,0.4,0.1,0.6,0.2c-0.3,0.2-1.6,0.9-2,1.1c-0.7-0.6-1.2-1.4-1.3-2.2c0-0.1-0.1-0.1-0.1-0.1c-0.1,0-0.1,0-0.2,0.1
			c-0.8,0.8-1,1.9-0.6,2.9c0.3,0.7,0.9,1.3,1.7,1.5c-1.1,0.7-2.3,0.9-3.5,0.8c0.8-0.6,1.2-1.5,1.2-2.5v-5.2c0.5-0.1,0.8,0,0.8,0.1
			c0.1,0.2,0.1,0.5,0,0.7c0,0.1,0,0.2,0.1,0.2c0.1,0,0.2,0,0.2,0c1-0.6,2.1-1,3.2-1.1c0.4-0.1,0.8-0.1,1.2-0.2
			c0.8-0.1,1.5-0.5,2.1-1C36,26.4,35.9,26.8,35.7,27.1 M14.9,21.8c0,0-0.7-1-0.9-1.4c0.6,0,3.8,0,4.1,0c1,0.8,2.2,1.3,3.4,1.3l0,0
			h0.1l0,0c1.3-0.1,2.5-0.5,3.4-1.3c0.2,0,3.5,0,4.1,0c-0.2,0.4-0.9,1.4-0.9,1.4l0,0.1v10.7c0,1-0.5,1.9-1.3,2.4
			c-0.7,0.5-4.6,3.1-5.3,3.6c-0.7-0.4-4.6-3.1-5.3-3.6c-0.9-0.5-1.4-1.4-1.3-2.4L14.9,21.8L14.9,21.8 M19.3,18
			c0.4,0.9,1.3,1.5,2.2,1.4h0.1c1,0.1,1.9-0.5,2.2-1.4V18l0-0.1c0-0.1-0.1-0.1-0.1-0.1c-1.7-0.4-1.9-1.5-1.9-1.9v-0.1
			c0.1-0.1,1.4-1.4,1.9-1.8c0.8,1.1,2.1,1.8,3.4,1.9c-0.2,0.4-0.6,1.2-0.7,1.5c-0.1,0.2-0.2,0.3-0.6,0.3H25c-0.1,0-0.1,0-0.2,0.1
			c-0.4,1.4-1.8,2.4-3.3,2.4h-0.1c-1.5,0-2.9-0.9-3.3-2.4c0-0.1-0.1-0.1-0.2-0.1h-0.8c-0.4,0-0.5-0.1-0.6-0.3
			c-0.1-0.2-0.5-1.1-0.7-1.5c1.4-0.1,2.7-0.8,3.4-1.9c0.5,0.4,1.8,1.7,1.9,1.8v0.1c0,0.4-0.2,1.6-1.9,1.9c0,0-0.1,0-0.1,0.1L19.3,18
			L19.3,18 M29.6,16.6L29.6,16.6L29.6,16.6l0,0.1l0,0l0.1,0h0.1c0.7,0,1.5-0.3,2-0.9c1.2,1,2.3,2.1,3.2,3.4c0.7,1,1.2,2.2,1.4,3.5
			c-0.6,0-1.1-0.3-1.4-0.8c0-0.1-0.1-0.1-0.2-0.1c-0.1,0-0.1,0-0.2,0.1c-0.1,0.5-0.2,1-0.2,1.5c-0.5-0.1-1.1,0-1.6,0.2
			c-0.1,0-0.1,0.1-0.1,0.1c0,0.1,0,0.1,0.1,0.2c0.4,0.3,0.5,0.9,0.3,1.4c-0.2,0.4-0.7,0.6-1.1,0.5c-0.4,0-0.8-0.3-1-0.6
			c-0.2-0.6-0.1-1.3,0.1-1.9c0-0.1,0-0.2,0-0.2c-0.1,0-0.1-0.1-0.2,0c0,0-0.6,0.3-0.8,0.4c-0.1-0.2-0.3-0.8-0.4-0.9
			c2.3-1.6,3.7-0.4,3.8-0.3c0.1,0,0.1,0,0.2,0c0.1,0,0.1-0.1,0.1-0.1c0,0,0.4-3.6-2.6-4c-1.5-0.1-3,0.7-3.7,2h-2.1
			c0.4-0.3,0.7-0.7,1-1c0.1,0,0.9-0.1,0.9-0.1c0.1,0,0.1,0,0.1-0.1l1.4-3.1l0-0.1l0-0.1c-0.1-0.1-0.1-0.1-0.2-0.1
			c-0.2,0-3.8,0.5-5-2.4c2.1,0.3,4.1,0.9,6,1.7C29.8,15.4,29.8,16,29.6,16.6 M29.4,14.3L29.4,14.3c-1.7-0.7-3.4-1.2-5.2-1.5
			c0.3-0.1,0.5-0.3,0.7-0.5C25.3,12.4,28.3,12.7,29.4,14.3 M27.7,11.2c-0.8,0.4-1.6,0.6-2.4,0.7c0.3-0.3,0.5-0.7,0.6-1.2
			C26.1,10.8,26.9,11,27.7,11.2 M17.6,9.9c0.2-1.2,1.5-2.5,3.9-2.5h0c2.4,0,3.7,1.3,3.9,2.5c0.2,1.2-0.6,2.3-2.1,2.9
			c-0.1,0-0.1,0.1-0.1,0.2c0.1,0.2,0.2,0.4,0.2,0.6c-0.4,0.4-1.9,1.8-2,1.9c-0.1-0.1-1.6-1.5-2-1.9c0.1-0.2,0.2-0.4,0.2-0.6
			c0-0.1,0-0.2-0.1-0.2C18.2,12.2,17.4,11.1,17.6,9.9 M17.2,10.8c0.1,0.4,0.3,0.8,0.6,1.2c-0.9-0.1-1.7-0.3-2.4-0.7
			C16.2,11,16.9,10.8,17.2,10.8 M13.7,14.3c1.1-1.6,4.1-1.9,4.5-1.9c0.2,0.2,0.4,0.3,0.7,0.5C17.1,13.1,15.3,13.6,13.7,14.3
			L13.7,14.3 M6.5,22.8c0.2-1.2,0.7-2.4,1.4-3.5c1-1.2,2-2.4,3.2-3.4c0.6,0.5,1.3,0.8,2,0.9h0.1l0.1,0h0l0-0.1v-0.1l0,0
			c-0.2-0.6-0.2-1.2,0-1.8c1.9-0.9,3.9-1.4,6-1.7c-1.2,2.9-4.8,2.4-4.9,2.4c-0.1,0-0.1,0-0.2,0.1l0,0.1l0,0.1l1.4,3.1
			c0,0.1,0.1,0.1,0.1,0.1c0,0,0.7,0.1,0.9,0.1c0.3,0.4,0.6,0.7,0.9,1h-2.1c-0.3-0.4-1.6-2.3-3.7-2c-3,0.4-2.6,4-2.6,4
			c0,0.1,0.1,0.1,0.1,0.1c0.1,0,0.1,0,0.2,0c0.1-0.1,1.5-1.3,3.8,0.3c-0.1,0.2-0.3,0.7-0.4,0.9c-0.2-0.1-0.8-0.4-0.8-0.4
			c-0.1,0-0.2,0-0.2,0c-0.1,0.1-0.1,0.1-0.1,0.2c0.3,0.6,0.3,1.3,0.1,1.9c-0.2,0.4-0.6,0.6-1,0.6c-0.4,0.1-0.9-0.1-1.1-0.5
			c-0.2-0.5-0.1-1,0.3-1.4c0.1-0.1,0.1-0.1,0.1-0.2c0-0.1-0.1-0.1-0.1-0.1c-0.5-0.2-1-0.2-1.6-0.2c0-0.5-0.1-1-0.2-1.5
			C8.3,22,8.2,22,8.1,22C8.1,22,8,22,8,22.1C7.6,22.5,7.1,22.8,6.5,22.8 M12.2,34.4c0.8-0.2,1.4-0.8,1.7-1.5c0.4-1,0.2-2.2-0.6-2.9
			c0,0-0.1-0.1-0.2-0.1C13,29.9,13,29.9,13,30c-0.2,0.9-0.7,1.6-1.3,2.2c-0.4-0.2-1.7-0.9-2-1.1c0.2-0.1,0.4-0.2,0.7-0.2
			c0.1,0,0.1-0.1,0.1-0.1v0c0-0.1,0-0.1-0.1-0.1c-1.2-0.9-2.2-2.1-3-3.4c-0.2-0.3-0.4-0.7-0.6-1c0.6,0.5,1.3,0.9,2.1,1
			c0.4,0.1,0.8,0.2,1.2,0.2c1.1,0.1,2.2,0.4,3.2,1.1c0.1,0.1,0.1,0.1,0.2,0c0.1-0.1,0.1-0.1,0.1-0.2c-0.1-0.2-0.1-0.6,0-0.7
			c0.1-0.1,0.3-0.2,0.8-0.1v5.2c0,1,0.4,1.9,1.2,2.5C14.5,35.3,13.2,35,12.2,34.4 M17.7,41.9L17.7,41.9 M13.5,41.3
			c0.2,0.1,0.4,0.3,0.6,0.5l0.9,0.7c0.6,0.5,1.2,0.9,1.8,1.4l0,0c0.3,0.2,0.6,0.4,1,0.6c0.7,0.4,1.4,0.5,2.2,0.4
			c1-0.3,1.6-1.3,1.6-2.3c0-1.9-1.1-3.6-3.3-4.9c-0.9-0.6-1.9-1.1-3-1.4c0.2-0.2,0.7-0.8,0.7-0.8l0-0.1l0.1,0
			c0.8,0.6,5.2,3.6,5.4,3.7c0.1,0,0.1,0,0.2,0c0.2-0.1,4.6-3.1,5.4-3.7l0,0l0.1,0.1c0,0,0.5,0.5,0.7,0.8c-1.1,0.3-2.1,0.8-3,1.4
			c-2.2,1.3-3.3,3-3.3,4.9c0,1,0.6,2,1.6,2.3c0.8,0.1,1.5,0,2.2-0.4c0.3-0.2,0.7-0.4,1-0.6l0,0c0.6-0.4,1.2-0.9,1.8-1.4l0.9-0.7
			l0.6-0.5c0.2,0.5,0.5,1.1,0.8,1.5h-1.7c-0.1,0-0.1,0-0.1,0.1c-1.7,2-4.3,3.1-6.9,3.1h0c-2.7,0.1-5.2-1-6.9-3.1
			c0,0-0.1-0.1-0.1-0.1h-1.7C13,42.4,13.3,41.9,13.5,41.3 M0.6,35.4C0.7,35.1,1,34.8,1,34.8l0-0.1v-0.1c0,0-0.3-0.8-0.4-1.2
			c0.7,0.1,2.7,0.3,3.3,0.4c0.1,0,0.1,0.1,0.2,0.1c-0.3,0.3-1.1,1-1.8,1.7C2,35.6,0.9,35.5,0.6,35.4 M2.1,36.6L2.1,36.6
			c0.1-0.2,0.2-0.4,0.3-0.5c0.7-0.7,1.5-1.5,1.9-1.8c0.1,0.3,0.1,0.6,0.1,0.9c0,0.5-0.1,0.9-0.3,1.4l-0.5,0.6
			c-0.4,0.5-0.7,0.8-0.7,1v0.1C2.2,38,1.9,37.3,2.1,36.6 M7.7,40.5c-0.4,0-0.8,0-1.2,0.1c-1,0.2-2,0.1-3-0.1
			c-0.5-0.2-0.9-0.6-1.2-1.1c1.2,0.7,3.4,0.4,5.2,0.1c0.6-0.1,1.2-0.2,1.6-0.2c0.7-0.1,1.5,0.1,2.2,0.4c-0.1,0.4-0.3,0.7-0.6,1
			C9.7,40.5,8.7,40.4,7.7,40.5 M12.2,40.3c0,0,0.2,0.2,0.4,0.4c-0.2,0.8-0.7,1.6-1.3,2.2h-0.8C11.3,42.1,11.8,41.3,12.2,40.3
			 M8.1,45.8C8,45.7,8,45.6,7.9,45.5c0-0.1,0.1-0.8,1.6-1.9c0.3-0.2,0.5-0.4,0.8-0.6l0,0.1l0,0v0.1C10.3,44.5,9.4,45.5,8.1,45.8
			 M9.9,46.9c-0.4,0-0.7-0.1-1-0.3c1.1-0.4,1.9-1.2,2.4-2.2c0.2,0.3,0.5,0.6,0.8,0.9C11.9,45.6,11,46.9,9.9,46.9 M29.6,46
			c-2.3,1.9-5.1,3-8.1,3.1h0c-3,0-5.8-1.1-8.1-3.1c-1-0.8-1.9-1.8-2.6-2.8h1.8c0.4,0.4,0.8,0.8,1.2,1.2c2.1,2,4.8,3.1,7.7,3.2h0
			c3.4-0.2,6.6-1.8,8.9-4.4h1.8C31.5,44.3,30.6,45.2,29.6,46 M32.7,43.1l0-0.1c0.2,0.2,0.5,0.4,0.8,0.6c1.5,1.1,1.6,1.7,1.6,1.9
			c-0.1,0.1-0.1,0.2-0.2,0.3C33.7,45.5,32.8,44.5,32.7,43.1L32.7,43.1L32.7,43.1 M34.2,46.6c-0.3,0.2-0.7,0.3-1,0.3
			c-1.1,0-1.9-1.3-2.1-1.7c0.3-0.3,0.6-0.6,0.8-0.9C32.2,45.4,33.1,46.2,34.2,46.6 M32.5,42.9h-0.8c-0.7-0.6-1.1-1.4-1.3-2.2
			l0.4-0.4C31.2,41.3,31.8,42.1,32.5,42.9 M39.5,40.4c-1,0.2-2,0.3-3,0.1c-0.4,0-0.9-0.1-1.2-0.1c-1,0-2,0-3.1,0.2
			c-0.2-0.3-0.4-0.7-0.6-1c0.7-0.3,1.4-0.4,2.2-0.4c0.5,0,1.1,0.1,1.6,0.2c1.8,0.3,4.1,0.6,5.2-0.1C40.4,39.8,40,40.2,39.5,40.4
			 M40.2,38.3L40.2,38.3c0-0.3-0.3-0.6-0.7-1.1L39,36.6c-0.2-0.4-0.3-0.9-0.3-1.4c0-0.3,0-0.6,0.1-0.9c0.4,0.3,1.2,1.1,1.9,1.8
			c0.1,0.2,0.2,0.3,0.3,0.5l0,0C41.1,37.3,40.8,37.9,40.2,38.3 M40.8,35.7C40.1,35,39.3,34.3,39,34c0-0.1,0.1-0.1,0.2-0.1
			c0.6-0.1,2.6-0.3,3.3-0.4c-0.1,0.4-0.4,1.2-0.4,1.2v0.1l0,0.1c0,0,0.2,0.4,0.4,0.6C42.1,35.4,41,35.6,40.8,35.7 M19.6,10.9
			L19.6,10.9c0.4,0.1,0.8,0.2,1.2,0.3h0.1c0.2,0,0.4,0,0.6,0c0.2,0,0.4,0,0.7,0h0.1c1.4-0.1,2.4-0.7,2.4-1.4c0-0.3-0.1-0.5-0.3-0.7
			c-0.8-0.6-1.8-0.9-2.8-0.8c-1-0.1-2,0.2-2.9,0.8c-0.2,0.2-0.3,0.4-0.3,0.7c0,0.3,0.1,0.5,0.3,0.7C19,10.7,19.3,10.8,19.6,10.9
			 M22.4,8.7c0.3,0,0.6,0.1,0.8,0.2v1.8c-0.3,0.1-0.6,0.1-0.8,0.2V8.7 M21.5,8.6c0.2,0,0.3,0,0.5,0v2.2c-0.2,0-0.3,0-0.5,0
			c-0.1,0-0.3,0-0.4,0V8.7C21.2,8.6,21.4,8.6,21.5,8.6 M20.7,8.7v2.2c-0.3,0-0.6-0.1-0.8-0.2V8.9C20.1,8.8,20.4,8.7,20.7,8.7"/>
		<path id="Path_60" class="st0" d="M23.7,31.7L23.7,31.7 M21.5,33.8L21.5,33.8"/>
		<path id="Path_61" class="st0" d="M23.7,31.7L23.7,31.7 M21.5,33.8L21.5,33.8"/>
		<path id="Path_62" class="st1" d="M19.3,31.7l2.2-2.2l2.2,2.2l-2.2,2.2L19.3,31.7z"/>
		<path id="Path_63" class="st1" d="M22,29l2.2-2.2l2.2,2.2l-2.2,2.2L22,29z"/>
		<path id="Path_64" class="st1" d="M16.5,29l2.2-2.2L21,29l-2.2,2.2L16.5,29z"/>
		<path id="Path_65" class="st1" d="M19.3,26.2l2.2-2.2l2.2,2.2l-2.2,2.2L19.3,26.2z"/>
	</g>
	<path id="Path_66" class="st0" d="M105,96.3c-0.7,0-1.3-0.5-1.3-1.3c0,0,0-0.1,0-0.1c0-0.7,0.6-1.3,1.3-1.3c0.7,0,1.3,0.6,1.3,1.3
		C106.3,95.7,105.7,96.3,105,96.3 M105,93.9c-0.6,0-1.1,0.4-1.2,1c0,0.6,0.4,1.1,1,1.2s1.1-0.4,1.2-1c0,0,0-0.1,0-0.1
		C106.1,94.4,105.6,93.9,105,93.9C105,93.9,105,93.9,105,93.9 M104.7,95.7h-0.2v-1.5h0.6c0.4,0,0.5,0.1,0.5,0.4
		c0,0.2-0.1,0.4-0.4,0.4c0,0,0,0,0,0l0.4,0.6h-0.3l-0.4-0.6h-0.2L104.7,95.7 M105,94.9c0.2,0,0.3,0,0.3-0.2c0-0.2-0.2-0.2-0.3-0.2
		h-0.3v0.4L105,94.9"/>
	<path id="Path_67" class="st0" d="M105,94.9h-0.3v-0.4h0.3c0.1,0,0.3,0,0.3,0.2C105.3,94.9,105.2,94.9,105,94.9 M104.7,95.1h0.2
		l0.4,0.6h0.3l-0.4-0.6c0.2,0,0.4-0.2,0.4-0.4c0,0,0,0,0,0c0-0.3-0.2-0.4-0.5-0.4h-0.6v1.5h0.2L104.7,95.1 M105,96.1
		c-0.6,0-1-0.5-1-1c0,0,0-0.1,0-0.1c0-0.6,0.4-1.1,1-1.1c0,0,0,0,0,0c0.6,0,1,0.5,1,1c0,0,0,0.1,0,0.1
		C106.1,95.6,105.6,96.1,105,96.1C105,96.1,105,96.1,105,96.1 M105,93.6c-0.7,0-1.3,0.6-1.4,1.3c0,0.7,0.6,1.3,1.3,1.4
		c0.7,0,1.3-0.6,1.4-1.3c0,0,0,0,0,0C106.3,94.3,105.8,93.7,105,93.6C105,93.6,105,93.6,105,93.6"/>
</g>
</svg>
