<?xml version="1.0" encoding="utf-8"?>
<!-- Generator: Adobe Illustrator 22.1.0, SVG Export Plug-In . SVG Version: 6.00 Build 0)  -->
<svg version="1.1" id="Group_916" xmlns="http://www.w3.org/2000/svg" xmlns:xlink="http://www.w3.org/1999/xlink" x="0px" y="0px"
	 viewBox="0 0 200 79.3" style="enable-background:new 0 0 200 79.3;" xml:space="preserve">
<style type="text/css">
	.st0{fill:#EDCC72;}
</style>
<path id="Path_32" class="st0" d="M75.8,23.5c-0.2,0-1.5-0.3-1.7-0.3c-2,5.8-5.9,9.2-10.4,9.2c-3.3,0-4.9-1.6-4.9-5.1V8.6
	c0-5,0.9-6.1,5.3-6.8V0.6H46.7v1.3c3.2,1,4.1,2.2,4.1,6.1v20c0,4.3-1,5.5-5.6,6.1v1.2h28.7C74,35.1,75.8,23.7,75.8,23.5z"/>
<path id="Path_33" class="st0" d="M166.7,33.9c-3.8-0.9-4.6-1.9-4.6-6.1V8c0-4.1,0.6-5.1,4.2-6.2V0.5h-16.8v1.3
	c3.6,1,4.5,2.3,4.5,6.2v19.8c0,4.1-0.9,5.2-4.9,6.1v1.3h17.6V33.9z"/>
<path id="Path_34" class="st0" d="M55.5,75.4c-3.9,0-5.5-1.6-5.5-5.5v-9.1L54,61c3,0.2,4.9,1.9,5.8,5.2h1.5V53.5h-1.4
	c-0.7,3-1.9,4.7-5.8,4.8L50,58.5V45.3l6.4,0.4c3.6,0.4,6.7,2.7,8.1,6.1c0.1,0,1.3-0.3,1.4-0.3c0-0.2-0.8-8.1-0.8-8.2H37.8v1.2
	c3.5,1.1,4.1,2.2,4.1,6.9v19.1c0,4.4-1.1,5.6-5.7,6.2v1.3h29.7c0-0.1,2.2-9,2.2-9.1c-0.1-0.1-1.2-0.6-1.3-0.6
	C65,70.8,60.7,75.4,55.5,75.4z"/>
<path id="Path_35" class="st0" d="M197.5,42.6c-4.9,1.3-7.2,1.5-14.5,1.5c-7.6,0-9.9-0.1-14.9-1.5c0,0.2-2.2,10.3-2.2,10.5
	c0.1,0,1.5,0.5,1.7,0.6c2.3-4.3,6.1-7.1,9.6-7.1h1.7v24.1c0,3.6-1.7,5.2-6.4,6v1.2h21.2v-1.2c-4.9-0.7-6.7-2.3-6.7-6V46.5h1.7
	c2.8,0,7,1.9,9.7,7.1c0.1-0.1,1.5-0.7,1.6-0.7C200,52.8,197.6,42.8,197.5,42.6z"/>
<path id="Path_36" class="st0" d="M21.4,44.4c3.2,1,4.1,1.9,4.1,3.9c0,1.4-0.3,2.8-0.8,4.1l-5.7,16.3l-6.9-18.3
	c-0.4-1.2-0.7-2.4-0.8-3.6c0-1.5,0.7-2,3.1-2.4v-1.2H0v1.4c1.9,0.5,2.7,1.7,3.4,3.7c0,0,11.2,30.9,11.2,31.1c1.9-0.6,4.1-1.6,5-3.9
	L30.4,49c1-2.4,1.7-3.7,4.2-4.8v-1H21.4V44.4z"/>
<path id="Path_37" class="st0" d="M30.1,35.8c8.6,0,12.9-3.1,12.9-9.2c0-4.5-3.8-7.8-10.1-8.9l-0.3-0.1l0.3-0.1
	c5.4-2.4,7.3-6.6,7.3-9.8c0-4.5-3.9-7.7-9.4-7.7c-2.7-0.1-5.4,0.2-8,0.8c0,0-11-0.8-11.2-0.8v1.3c3.4,1.5,4.1,2.8,4.1,7.3v19.2
	c0,4.4-1.1,5.5-5.7,6.1v1.3h11.6C24.5,35.6,27.3,35.8,30.1,35.8z M23.8,2.6L23.8,2.6c7.2,0,9.9,4.7,9.9,7.7c0,2.9-1.2,4.5-3.7,6.7
	l-5.4-0.6l-0.9-0.1L23.8,2.6z M23.8,18.9L23.8,18.9c7.5,0.8,11.1,2.2,11.1,7.9c0,4.1-2.4,6.9-5.7,6.9c-3.4,0-5.3-2.1-5.3-6V18.9z"/>
<path id="Path_38" class="st0" d="M119.1,44.4c3.2,1,4.1,1.9,4.1,3.9c0,1.4-0.3,2.8-0.8,4.1l-5.7,16.3l-6.9-18.3
	c-0.4-1.2-0.7-2.4-0.8-3.6c0-1.5,0.7-2,3.1-2.4v-1.2H97.7v1.4c1.9,0.5,2.7,1.7,3.4,3.7c0,0,11.2,30.9,11.2,31.1
	c1.9-0.6,4.1-1.6,5-3.9L128,49c1-2.4,1.7-3.7,4.2-4.8v-1h-13.1V44.4z"/>
<path id="Path_39" class="st0" d="M89.1,34c-0.1,0-0.5-0.2-0.5-0.2L88,33.7c-2.2-0.6-2.9-1.3-2.9-2.9c0-0.7,0.2-1.5,0.4-2.2l1.7-4.8
	h11.9L101,29c0.2,0.5,0.3,1.1,0.3,1.7c0,1.9-1.1,2.9-3.6,3.3v1.2h15.6V34c-1.6-0.6-2.8-1.9-3.3-3.4c0,0-11.6-30.2-11.7-30.3h-6
	c-0.3,0.6-11,27.7-11,27.7c-1.7,4.3-2.1,4.9-4.8,6.1v1.3h12.6L89.1,34z M93,6.9l5.1,13.9h-9.8L93,6.9z"/>
<path id="Path_40" class="st0" d="M132.2,36c5.2,0,8.9-0.4,11.2-1.3c0-0.1,2.7-10.2,2.7-10.4l-1.4-0.7c-2.4,6.1-6.7,9.7-11.5,9.7
	c-6.3,0-11.8-7.5-11.8-16.2c0-8,4.6-14.8,10-14.8c5.7,0,9.6,3.2,11.5,9.5c0.1,0,1.1-0.3,1.3-0.4V2.3c-2.7-1.6-8.2-2.3-12.5-2.3
	c-9.3,0-18.9,6.7-18.9,17.9C112.7,28,121.2,36,132.2,36z"/>
<path id="Path_41" class="st0" d="M89.4,75c-3.3,0-4.8-1.6-4.8-5.1V51.2c0-5,0.9-6.1,5.3-6.8v-1.2H72.4v1.3c3.2,1,4.1,2.2,4.1,6.1
	v20c0,4.3-1,5.5-5.6,6.1v1.2h28.7c0-0.2,1.8-11.6,1.9-11.7c-0.2,0-1.5-0.3-1.7-0.3C97.7,71.6,93.9,75,89.4,75z"/>
<path id="Path_42" class="st0" d="M173.9,4.3c0,1.4-1.4,3.1-2.7,4.7l-0.1,0.1c0,0-7.9,9.3-8,9.5c0.1,0.1,5.1,6.7,5.1,6.7
	c5.2,6.7,8.9,11.5,14.5,11.5c2.2,0,4.4-0.2,6.6-0.5v-1c-3-0.8-7.3-4.9-8.9-6.9L170,15.4l5.3-5.6L176,9c2.1-2.3,5.7-6.1,10.3-7.2V0.6
	h-16v1.3C172.1,2.1,173.9,2.9,173.9,4.3z"/>
<path id="Path_43" class="st0" d="M153.2,75.4c-3.9,0-5.5-1.6-5.5-5.5v-9.1l3.9,0.2c3,0.2,4.9,1.9,5.8,5.2h1.5V53.5h-1.5
	c-0.7,3-1.9,4.7-5.8,4.8l-3.9,0.2V45.3l6.4,0.4c3.6,0.4,6.7,2.7,8.1,6.1c0.1,0,1.3-0.3,1.4-0.3c0-0.2-0.8-8.1-0.8-8.2h-27.3v1.2
	c3.5,1.1,4.1,2.2,4.1,6.9v19.1c0,4.4-1.1,5.6-5.7,6.2v1.3h29.7c0-0.1,2.2-9,2.2-9.1c-0.1-0.1-1.2-0.6-1.3-0.6
	C162.8,70.8,158.4,75.4,153.2,75.4z"/>
<path id="Path_44" class="st0" d="M193.5,67.4c-1.4,0-2.5,1.1-2.5,2.5s1.1,2.5,2.5,2.5c1.4,0,2.4-1.2,2.4-2.5
	C195.9,68.5,194.8,67.4,193.5,67.4z M193.5,71.9c-1.1-0.1-2-1-1.9-2.1c0.1-1,0.9-1.8,1.9-1.9c1.1,0.1,2,1,1.9,2.1
	C195.4,71,194.5,71.8,193.5,71.9L193.5,71.9z"/>
<path id="Path_45" class="st0" d="M194.6,69.3c0-0.5-0.3-0.8-1-0.8h-1v2.7h0.4v-1.1h0.4l0.7,1.2h0.5l-0.8-1.2
	C194.3,70,194.6,69.8,194.6,69.3z M193.1,69.7v-0.8h0.5c0.3,0,0.6,0,0.6,0.4c0,0.4-0.3,0.4-0.6,0.4H193.1z"/>
</svg>
