<?xml version="1.0" encoding="UTF-8"?>
<svg version="1.1" id="Layer_1" xmlns="http://www.w3.org/2000/svg" xmlns:xlink="http://www.w3.org/1999/xlink" x="0px" y="0px" viewBox="0 0 95.8 72" style="enable-background:new 0 0 95.8 72;" xml:space="preserve">
<style type="text/css">
	.st0{fill:#95989A;}
	.st1{clip-path:url(#SVGID_2_);fill:#95989A;}
</style>
<polygon class="st0" points="0,42.7 0,43.8 2.5,43.8 2.5,53.8 3.6,53.8 3.6,43.8 6.1,43.8 6.1,42.7 "/>
<g>
	<defs>
		<rect id="SVGID_1_" y="0" width="95.8" height="72"/>
	</defs>
	<clipPath id="SVGID_2_">
		<use xlink:href="#SVGID_1_" style="overflow:visible;"/>
	</clipPath>
	<path class="st1" d="M8,42.4H9V47c0.4-0.6,0.9-1,1.4-1.3c0.5-0.3,1.1-0.4,1.7-0.4c0.6,0,1.2,0.2,1.6,0.5c0.5,0.3,0.8,0.7,1,1.3   c0.2,0.5,0.3,1.3,0.3,2.5v4.2H14v-3.9c0-0.9,0-1.6-0.1-1.9c-0.1-0.5-0.4-1-0.7-1.2c-0.3-0.3-0.8-0.4-1.4-0.4   c-0.6,0-1.2,0.2-1.7,0.6c-0.5,0.4-0.8,0.9-1,1.6C9.1,48.9,9,49.7,9,50.8v3H8V42.4z"/>
	<path class="st1" d="M18.2,42.2c0.2,0,0.4,0.1,0.6,0.3c0.2,0.2,0.3,0.4,0.3,0.6c0,0.2-0.1,0.4-0.3,0.6c-0.2,0.2-0.4,0.3-0.6,0.3   c-0.2,0-0.4-0.1-0.6-0.3c-0.2-0.2-0.3-0.4-0.3-0.6c0-0.2,0.1-0.4,0.3-0.6C17.7,42.3,17.9,42.2,18.2,42.2 M17.7,45.6h1.1v8.2h-1.1   V45.6z"/>
	<path class="st1" d="M21.4,45.6h1.1V47c0.4-0.6,0.9-1,1.4-1.3c0.5-0.3,1.1-0.4,1.7-0.4c0.6,0,1.2,0.2,1.6,0.5   c0.5,0.3,0.8,0.7,1.1,1.3c0.2,0.5,0.3,1.3,0.3,2.5v4.2h-1.1v-3.9c0-0.9,0-1.6-0.1-1.9c-0.1-0.5-0.4-1-0.7-1.2   c-0.3-0.3-0.8-0.4-1.4-0.4c-0.6,0-1.2,0.2-1.7,0.6c-0.5,0.4-0.8,0.9-1,1.6c-0.1,0.4-0.1,1.1-0.1,2.2v3h-1.1V45.6z"/>
	<polygon class="st1" points="31.2,42.4 32.2,42.4 32.2,48.9 36,45.6 37.6,45.6 33.1,49.5 37.8,53.8 36.4,53.8 32.2,50.1 32.2,53.8    31.2,53.8  "/>
	<polygon class="st1" points="42.7,42.7 43.9,42.7 46.1,50.7 49.3,42.7 49.6,42.7 52.7,50.7 55,42.7 56.1,42.7 52.9,53.8 52.7,53.8    49.4,45.4 46.1,53.8 45.9,53.8  "/>
	<path class="st1" d="M58.8,42.2c0.2,0,0.4,0.1,0.6,0.3c0.2,0.2,0.3,0.4,0.3,0.6c0,0.2-0.1,0.4-0.3,0.6c-0.2,0.2-0.4,0.3-0.6,0.3   c-0.2,0-0.4-0.1-0.6-0.3c-0.2-0.2-0.3-0.4-0.3-0.6c0-0.2,0.1-0.4,0.3-0.6C58.4,42.3,58.6,42.2,58.8,42.2 M58.3,45.6h1.1v8.2h-1.1   V45.6z"/>
	<path class="st1" d="M66.1,46.5l-0.7,0.7c-0.6-0.5-1.1-0.8-1.7-0.8c-0.3,0-0.6,0.1-0.9,0.3c-0.2,0.2-0.4,0.5-0.4,0.8   c0,0.3,0.1,0.5,0.3,0.8c0.2,0.2,0.6,0.5,1.3,0.9c0.8,0.4,1.3,0.8,1.6,1.2c0.3,0.4,0.4,0.8,0.4,1.3c0,0.7-0.2,1.2-0.7,1.7   C65,53.7,64.4,54,63.7,54c-0.5,0-0.9-0.1-1.3-0.3c-0.4-0.2-0.8-0.5-1.1-0.9l0.7-0.8c0.5,0.6,1.1,0.9,1.7,0.9c0.4,0,0.8-0.1,1.1-0.4   c0.3-0.3,0.4-0.6,0.4-1c0-0.3-0.1-0.6-0.3-0.8c-0.2-0.2-0.6-0.5-1.3-0.9c-0.7-0.4-1.2-0.8-1.5-1.1c-0.3-0.4-0.4-0.8-0.4-1.3   c0-0.6,0.2-1.1,0.6-1.5c0.4-0.4,1-0.6,1.6-0.6C64.6,45.4,65.4,45.7,66.1,46.5"/>
	<path class="st1" d="M75.2,51l0.9,0.5c-0.3,0.6-0.6,1-1,1.4c-0.4,0.4-0.8,0.6-1.3,0.8c-0.5,0.2-1,0.3-1.6,0.3   c-1.3,0-2.4-0.4-3.1-1.3c-0.8-0.9-1.1-1.9-1.1-3c0-1,0.3-2,1-2.8c0.8-1,1.9-1.6,3.2-1.6c1.4,0,2.5,0.5,3.3,1.6   c0.6,0.7,0.9,1.7,0.9,2.8H69c0,1,0.3,1.7,0.9,2.3c0.6,0.6,1.3,0.9,2.2,0.9c0.4,0,0.8-0.1,1.2-0.2c0.4-0.1,0.7-0.3,1-0.6   C74.6,52,74.9,51.6,75.2,51 M75.2,48.8c-0.1-0.6-0.3-1-0.6-1.3c-0.3-0.3-0.6-0.6-1.1-0.8c-0.4-0.2-0.9-0.3-1.4-0.3   c-0.8,0-1.5,0.3-2.1,0.8c-0.4,0.4-0.7,0.9-1,1.7H75.2z"/>
	<rect x="78.6" y="42.4" class="st1" width="1.1" height="11.4"/>
	<polygon class="st1" points="81.4,45.6 82.5,45.6 85.3,51.9 88.1,45.6 89.2,45.6 84.3,56.8 83.2,56.8 84.8,53.1  "/>
	<path class="st1" d="M91,52.1c0.3,0,0.5,0.1,0.7,0.3c0.2,0.2,0.3,0.4,0.3,0.7c0,0.3-0.1,0.5-0.3,0.7C91.4,53.9,91.2,54,91,54   c-0.3,0-0.5-0.1-0.7-0.3C90.1,53.5,90,53.3,90,53c0-0.3,0.1-0.5,0.3-0.7C90.5,52.2,90.7,52.1,91,52.1"/>
	<path class="st1" d="M0.8,69V57.9h2.3c1.7,0,2.9,0.1,3.6,0.4c1.1,0.4,1.9,1,2.5,2c0.6,0.9,0.9,2,0.9,3.3c0,1.1-0.2,2.1-0.7,2.9   c-0.5,0.8-1.1,1.5-1.9,1.9C6.7,68.8,5.7,69,4.3,69H0.8z M1.8,67.9h1.3c1.5,0,2.6-0.1,3.2-0.3c0.8-0.3,1.5-0.8,2-1.5   C8.7,65.5,9,64.6,9,63.6c0-1.1-0.3-2-0.8-2.7C7.7,60.1,7,59.6,6,59.3C5.3,59.1,4.2,59,2.6,59H1.8V67.9z"/>
	<path class="st1" d="M12.4,60.8h1.1V62c0.3-0.5,0.7-0.8,1-1.1c0.4-0.2,0.7-0.3,1.1-0.3c0.3,0,0.6,0.1,0.9,0.3L16,61.7   c-0.2-0.1-0.4-0.1-0.6-0.1c-0.4,0-0.7,0.1-1,0.4c-0.3,0.3-0.6,0.7-0.7,1.3c-0.1,0.5-0.2,1.4-0.2,2.8V69h-1.1V60.8z"/>
	<path class="st1" d="M18.5,57.4c0.2,0,0.4,0.1,0.6,0.3c0.2,0.2,0.3,0.4,0.3,0.6c0,0.2-0.1,0.4-0.3,0.6c-0.2,0.2-0.4,0.3-0.6,0.3   c-0.2,0-0.4-0.1-0.6-0.3c-0.2-0.2-0.3-0.4-0.3-0.6c0-0.2,0.1-0.4,0.3-0.6C18.1,57.5,18.3,57.4,18.5,57.4 M18,60.8H19V69H18V60.8z"/>
	<path class="st1" d="M21.7,60.8h1.1v1.5c0.4-0.6,0.9-1,1.4-1.3c0.5-0.3,1.1-0.4,1.7-0.4c0.6,0,1.2,0.2,1.6,0.5   c0.5,0.3,0.8,0.7,1.1,1.3c0.2,0.5,0.3,1.3,0.3,2.5V69h-1.1v-3.9c0-0.9,0-1.6-0.1-1.9c-0.1-0.5-0.4-1-0.7-1.2   c-0.3-0.3-0.8-0.4-1.4-0.4c-0.6,0-1.2,0.2-1.7,0.6c-0.5,0.4-0.8,0.9-1,1.6c-0.1,0.4-0.1,1.2-0.1,2.2v3h-1.1V60.8z"/>
	<polygon class="st1" points="31.5,57.6 32.6,57.6 32.6,64.1 36.4,60.8 37.9,60.8 33.4,64.7 38.2,69 36.7,69 32.6,65.3 32.6,69    31.5,69  "/>
	<polygon class="st1" points="43.1,57.9 44.2,57.9 46.5,65.9 49.7,57.9 49.9,57.9 53,65.9 55.3,57.9 56.5,57.9 53.3,69 53.1,69    49.8,60.6 46.4,69 46.2,69  "/>
	<path class="st1" d="M59.2,57.4c0.2,0,0.4,0.1,0.6,0.3C60,57.8,60,58,60,58.3c0,0.2-0.1,0.4-0.3,0.6c-0.2,0.2-0.4,0.3-0.6,0.3   c-0.2,0-0.4-0.1-0.6-0.3c-0.2-0.2-0.3-0.4-0.3-0.6c0-0.2,0.1-0.4,0.3-0.6C58.7,57.5,58.9,57.4,59.2,57.4 M58.7,60.8h1.1V69h-1.1   V60.8z"/>
	<path class="st1" d="M66.5,61.7l-0.7,0.7c-0.6-0.6-1.1-0.8-1.7-0.8c-0.3,0-0.6,0.1-0.9,0.3c-0.2,0.2-0.4,0.5-0.4,0.8   c0,0.3,0.1,0.5,0.3,0.8c0.2,0.3,0.6,0.5,1.3,0.9c0.8,0.4,1.3,0.8,1.6,1.2c0.3,0.4,0.4,0.8,0.4,1.3c0,0.7-0.2,1.2-0.7,1.7   c-0.5,0.5-1.1,0.7-1.8,0.7c-0.5,0-0.9-0.1-1.4-0.3c-0.4-0.2-0.8-0.5-1.1-0.9l0.7-0.8c0.5,0.6,1.1,0.9,1.7,0.9   c0.4,0,0.8-0.1,1.1-0.4c0.3-0.3,0.4-0.6,0.4-1c0-0.3-0.1-0.6-0.3-0.8c-0.2-0.2-0.6-0.5-1.3-0.9c-0.7-0.4-1.2-0.8-1.5-1.1   c-0.3-0.4-0.4-0.8-0.4-1.3c0-0.6,0.2-1.1,0.6-1.6c0.4-0.4,1-0.6,1.6-0.6C65,60.6,65.7,60.9,66.5,61.7"/>
	<path class="st1" d="M75.6,66.2l0.9,0.5c-0.3,0.6-0.6,1-1,1.4c-0.4,0.4-0.8,0.6-1.3,0.8c-0.5,0.2-1,0.3-1.6,0.3   c-1.3,0-2.4-0.4-3.1-1.3c-0.8-0.9-1.1-1.9-1.1-3c0-1,0.3-2,1-2.8c0.8-1,1.9-1.5,3.2-1.5c1.4,0,2.5,0.5,3.3,1.6   c0.6,0.7,0.9,1.7,0.9,2.8h-7.4c0,0.9,0.3,1.7,0.9,2.3c0.6,0.6,1.3,0.9,2.2,0.9c0.4,0,0.8-0.1,1.2-0.2c0.4-0.1,0.7-0.3,1-0.6   C74.9,67.2,75.2,66.8,75.6,66.2 M75.6,64c-0.1-0.6-0.3-1-0.6-1.3c-0.3-0.3-0.6-0.6-1.1-0.8c-0.4-0.2-0.9-0.3-1.4-0.3   c-0.8,0-1.5,0.3-2.1,0.8c-0.4,0.4-0.7,0.9-1,1.7H75.6z"/>
	<rect x="78.9" y="57.6" class="st1" width="1.1" height="11.4"/>
	<polygon class="st1" points="81.7,60.8 82.8,60.8 85.7,67.1 88.4,60.8 89.5,60.8 84.6,72 83.5,72 85.1,68.3  "/>
	<path class="st1" d="M91.3,67.3c0.3,0,0.5,0.1,0.7,0.3c0.2,0.2,0.3,0.4,0.3,0.7c0,0.3-0.1,0.5-0.3,0.7c-0.2,0.2-0.4,0.3-0.7,0.3   c-0.3,0-0.5-0.1-0.7-0.3c-0.2-0.2-0.3-0.4-0.3-0.7c0-0.3,0.1-0.5,0.3-0.7C90.8,67.4,91.1,67.3,91.3,67.3"/>
	<path class="st1" d="M31.5,13.7c0,3,2.5,5.5,5.5,5.5c3,0,5.5-2.5,5.5-5.5c0-3-2.5-5.5-5.5-5.5C33.9,8.2,31.5,10.7,31.5,13.7    M31.8,13.7c0-2.8,2.3-5.1,5.1-5.1c2.8,0,5.1,2.3,5.1,5.1c0,2.8-2.3,5.1-5.1,5.1C34.1,18.8,31.8,16.5,31.8,13.7"/>
	<path class="st1" d="M35.6,8.5c-0.1,0-0.7,0-0.7,0s-0.5,0.4-0.5,0.5c-0.1,0-0.7,0.2-0.7,0.2s-0.3,0.5-0.4,0.6   c-0.1,0-0.6,0.3-0.6,0.3s-0.2,0.6-0.2,0.7c-0.1,0.1-0.5,0.4-0.5,0.4s-0.1,0.6-0.1,0.7c0,0.1-0.4,0.6-0.4,0.6s0.1,0.6,0.1,0.7   c0,0.1-0.3,0.6-0.3,0.6s0.2,0.6,0.3,0.6c0,0.1-0.1,0.7-0.1,0.7s0.4,0.5,0.4,0.6c0,0.1,0.1,0.7,0.1,0.7s0.5,0.4,0.5,0.5   c0,0.1,0.2,0.7,0.2,0.7s0.5,0.3,0.6,0.3c0,0.1,0.4,0.6,0.4,0.6s0.6,0.1,0.7,0.2c0.1,0.1,0.5,0.5,0.5,0.5s0.6,0,0.7,0   c0.1,0,0.6,0.3,0.6,0.3s0.6-0.2,0.7-0.2c0.1,0,0.7,0.2,0.7,0.2s0.5-0.3,0.6-0.3c0.1,0,0.7,0,0.7,0s0.5-0.4,0.5-0.5   c0.1,0,0.7-0.2,0.7-0.2s0.3-0.5,0.4-0.6c0.1,0,0.6-0.3,0.6-0.3s0.2-0.6,0.2-0.7c0.1,0,0.5-0.5,0.5-0.5s0.1-0.6,0.1-0.7   c0-0.1,0.4-0.6,0.4-0.6s-0.1-0.6-0.1-0.7c0-0.1,0.3-0.6,0.3-0.6s-0.2-0.6-0.3-0.6c0-0.1,0.1-0.7,0.1-0.7s-0.4-0.5-0.4-0.6   c0-0.1-0.1-0.7-0.1-0.7s-0.5-0.4-0.5-0.4c0-0.1-0.2-0.7-0.2-0.7s-0.5-0.3-0.6-0.3c0-0.1-0.4-0.6-0.4-0.6S39.5,9,39.4,8.9   c-0.1-0.1-0.5-0.5-0.5-0.5s-0.6,0-0.7,0c-0.1,0-0.6-0.3-0.6-0.3S37,8.3,36.9,8.3c-0.1,0-0.7-0.2-0.7-0.2S35.7,8.4,35.6,8.5    M37.6,8.5c0.1,0.1,0.6,0.3,0.6,0.3s0.5,0,0.6,0c0.1,0.1,0.5,0.4,0.5,0.4s0.5,0.1,0.6,0.1c0.1,0.1,0.4,0.5,0.4,0.5s0.5,0.2,0.6,0.3   c0,0.1,0.2,0.6,0.2,0.6s0.4,0.4,0.5,0.4c0,0.1,0.1,0.6,0.1,0.6s0.3,0.4,0.4,0.5c0,0.1-0.1,0.6-0.1,0.6s0.2,0.5,0.2,0.6   c0,0.1-0.2,0.6-0.2,0.6s0.1,0.5,0.1,0.6c-0.1,0.1-0.4,0.5-0.4,0.5s-0.1,0.5-0.1,0.6c-0.1,0.1-0.5,0.4-0.5,0.4s-0.2,0.5-0.2,0.6   c-0.1,0-0.6,0.3-0.6,0.3S40,17.9,39.9,18c-0.1,0-0.6,0.1-0.6,0.1s-0.4,0.4-0.5,0.4c-0.1,0-0.6,0-0.6,0s-0.5,0.3-0.6,0.3   c-0.1,0-0.6-0.2-0.6-0.2s-0.5,0.1-0.6,0.2c-0.1,0-0.6-0.3-0.6-0.3s-0.5,0-0.7,0c-0.1-0.1-0.5-0.4-0.5-0.4S34.1,18,34,18   c-0.1-0.1-0.4-0.5-0.4-0.5s-0.5-0.2-0.6-0.3c0-0.1-0.2-0.6-0.2-0.6s-0.4-0.4-0.5-0.4c0-0.1-0.1-0.6-0.1-0.6s-0.3-0.4-0.4-0.5   c0-0.1,0.1-0.6,0.1-0.6l-0.2-0.6c0-0.1,0.2-0.6,0.2-0.6s-0.1-0.5-0.1-0.6c0.1-0.1,0.4-0.5,0.4-0.5s0.1-0.5,0.1-0.6   c0.1-0.1,0.5-0.4,0.5-0.4s0.2-0.5,0.2-0.6c0.1,0,0.6-0.3,0.6-0.3s0.3-0.4,0.4-0.5c0.1,0,0.6-0.1,0.6-0.1s0.4-0.4,0.5-0.4   c0.1,0,0.7,0,0.7,0s0.5-0.3,0.6-0.3c0.1,0,0.6,0.2,0.6,0.2S37.4,8.5,37.6,8.5"/>
	<path class="st1" d="M45.5,13.7c0,3,2.5,5.5,5.5,5.5c3,0,5.5-2.5,5.5-5.5c0-3-2.5-5.5-5.5-5.5C47.9,8.2,45.5,10.7,45.5,13.7    M45.8,13.7c0-2.8,2.3-5.1,5.1-5.1c2.8,0,5.1,2.3,5.1,5.1c0,2.8-2.3,5.1-5.1,5.1C48.1,18.8,45.8,16.5,45.8,13.7"/>
	<path class="st1" d="M49.6,8.5c-0.1,0-0.7,0-0.7,0s-0.5,0.4-0.5,0.5c-0.1,0-0.7,0.2-0.7,0.2s-0.3,0.5-0.4,0.6   c-0.1,0-0.6,0.3-0.6,0.3s-0.2,0.6-0.2,0.7c-0.1,0.1-0.5,0.4-0.5,0.4s-0.1,0.6-0.1,0.7c0,0.1-0.4,0.6-0.4,0.6s0.1,0.6,0.1,0.7   c0,0.1-0.3,0.6-0.3,0.6s0.2,0.6,0.3,0.6c0,0.1-0.1,0.7-0.1,0.7s0.4,0.5,0.4,0.6c0,0.1,0.1,0.7,0.1,0.7s0.5,0.4,0.5,0.5   c0,0.1,0.2,0.7,0.2,0.7s0.5,0.3,0.6,0.3c0,0.1,0.4,0.6,0.4,0.6s0.6,0.1,0.7,0.2c0.1,0.1,0.5,0.5,0.5,0.5s0.6,0,0.7,0   c0.1,0,0.6,0.3,0.6,0.3s0.6-0.2,0.7-0.2c0.1,0,0.7,0.2,0.7,0.2s0.5-0.3,0.6-0.3c0.1,0,0.7,0,0.7,0s0.5-0.4,0.5-0.5   c0.1,0,0.7-0.2,0.7-0.2s0.3-0.5,0.4-0.6c0.1,0,0.6-0.3,0.6-0.3s0.2-0.6,0.2-0.7c0.1,0,0.5-0.5,0.5-0.5s0.1-0.6,0.1-0.7   c0-0.1,0.4-0.6,0.4-0.6s-0.1-0.6-0.1-0.7c0-0.1,0.3-0.6,0.3-0.6s-0.2-0.6-0.3-0.6c0-0.1,0.1-0.7,0.1-0.7S56,11.9,56,11.8   c0-0.1-0.1-0.7-0.1-0.7s-0.5-0.4-0.5-0.4c0-0.1-0.2-0.7-0.2-0.7s-0.6-0.3-0.6-0.3c0-0.1-0.4-0.6-0.4-0.6S53.5,9,53.4,8.9   c-0.1-0.1-0.5-0.5-0.5-0.5s-0.6,0-0.7,0c-0.1,0-0.6-0.3-0.6-0.3S51,8.3,50.9,8.3c-0.1,0-0.7-0.2-0.7-0.2S49.7,8.4,49.6,8.5    M51.6,8.5c0.1,0.1,0.6,0.3,0.6,0.3s0.5,0,0.6,0c0.1,0.1,0.5,0.4,0.5,0.4s0.5,0.1,0.6,0.1c0.1,0.1,0.4,0.5,0.4,0.5s0.5,0.2,0.6,0.3   c0,0.1,0.2,0.6,0.2,0.6s0.4,0.4,0.5,0.4c0,0.1,0.1,0.6,0.1,0.6s0.3,0.4,0.4,0.5c0,0.1-0.1,0.6-0.1,0.6s0.2,0.5,0.2,0.6   c0,0.1-0.2,0.6-0.2,0.6s0.1,0.5,0.1,0.6c-0.1,0.1-0.4,0.5-0.4,0.5s-0.1,0.5-0.1,0.6c-0.1,0.1-0.5,0.4-0.5,0.4s-0.2,0.5-0.2,0.6   c-0.1,0-0.6,0.3-0.6,0.3S54,17.9,53.9,18c-0.1,0-0.6,0.1-0.6,0.1s-0.4,0.4-0.5,0.4c-0.1,0-0.6,0-0.6,0s-0.5,0.3-0.6,0.3   c-0.1,0-0.6-0.2-0.6-0.2s-0.5,0.1-0.6,0.2c-0.1-0.1-0.6-0.3-0.6-0.3s-0.5,0-0.7,0c-0.1-0.1-0.5-0.4-0.5-0.4S48.1,18,48,18   c-0.1-0.1-0.4-0.5-0.4-0.5s-0.5-0.2-0.6-0.3c0-0.1-0.2-0.6-0.2-0.6s-0.4-0.4-0.5-0.4c0-0.1-0.1-0.6-0.1-0.6s-0.3-0.4-0.4-0.5   c0-0.1,0.1-0.6,0.1-0.6s-0.2-0.5-0.2-0.6c0-0.1,0.2-0.6,0.2-0.6s-0.1-0.5-0.1-0.6c0.1-0.1,0.4-0.5,0.4-0.5s0.1-0.5,0.1-0.6   c0.1-0.1,0.5-0.4,0.5-0.4s0.2-0.5,0.2-0.6c0.1,0,0.6-0.3,0.6-0.3s0.3-0.4,0.4-0.5c0.1,0,0.6-0.1,0.6-0.1s0.4-0.4,0.5-0.4   c0.1,0,0.7,0,0.7,0s0.5-0.3,0.6-0.3c0.1,0,0.6,0.2,0.6,0.2S51.5,8.5,51.6,8.5"/>
	<path class="st1" d="M38,13.8c0,0.6-0.5,1.1-1.1,1.1c-0.6,0-1.1-0.5-1.1-1.1c0-0.6,0.5-1.1,1.1-1.1C37.5,12.7,38,13.2,38,13.8"/>
	<path class="st1" d="M52.1,13.8c0,0.6-0.5,1.1-1.1,1.1c-0.6,0-1.1-0.5-1.1-1.1c0-0.6,0.5-1.1,1.1-1.1   C51.6,12.7,52.1,13.2,52.1,13.8"/>
	<polygon class="st1" points="47.3,18.9 44.2,24.2 41.2,18.9  "/>
	<path class="st1" d="M61.1,18.4c1.4-5.3-1.2-11.9-2.7-15.2c0.3-0.5,0.9-1.4,1.4-1.7c0.6-0.4-0.7,0.4-1.8,1l0,0   c0.3-0.5,0.8-1.3,1.4-1.6c0.6-0.3-0.7,0.3-1.7,1c0.3-0.5,0.9-1.4,1.4-1.7c0.6-0.4-0.8,0.4-1.8,1h0c0,0-7.9,3.6-13.7,3.6   c-5,0-10.7-2.5-12.2-3.2c-1-0.7-2.8-1.6-2.1-1.3c0.6,0.3,1.1,1.2,1.4,1.7c-1-0.6-2.3-1.3-1.7-0.9c0.6,0.3,1.2,1.3,1.4,1.7   c0,0,0,0.1,0,0.1c-1-0.7-2.6-1.5-1.9-1.1c0.8,0.4,1.5,1.8,1.6,2c-1.1,3.1-2.9,8.8-2.8,14.4c0.2,7.8,12.3,14.8,17.2,15.5v3   l-11.7,3.7h24.8l-11.7-3.7v-3C50.3,33.2,58.6,28.2,61.1,18.4 M31.9,3.2C31.9,3.2,44,5,44,9.6c0,0,0-5,11.9-6.4   c0,0,11.8,24.9-10.6,29.8C45.3,33,22.6,31,31.9,3.2"/>
	<path class="st1" d="M92.4,61.6c0-0.9,0.7-1.7,1.7-1.7c0.9,0,1.7,0.8,1.7,1.7c0,0.9-0.7,1.7-1.7,1.7C93.1,63.3,92.4,62.6,92.4,61.6    M95.5,61.6c0-0.8-0.7-1.4-1.4-1.4c-0.8,0-1.4,0.6-1.4,1.4c0,0.8,0.7,1.4,1.4,1.4C94.8,63,95.5,62.4,95.5,61.6 M94.9,62.5h-0.3   L94,61.7h-0.3v0.9h-0.3v-1.8h0.8c0.3,0,0.7,0.1,0.7,0.5c0,0.4-0.3,0.5-0.6,0.5L94.9,62.5z M94,61.4c0.2,0,0.6,0,0.6-0.2   c0-0.2-0.3-0.2-0.4-0.2h-0.5v0.5H94z"/>
</g>
</svg>